<?xml version="1.0" encoding="utf-8"?>

<!DOCTYPE svg PUBLIC "-//W3C//DTD SVG 1.1//EN" "http://www.w3.org/Graphics/SVG/1.1/DTD/svg11.dtd">
<svg version="1.1" id="Layer_1" xmlns="http://www.w3.org/2000/svg" xmlns:xlink="http://www.w3.org/1999/xlink" x="0px" y="0px"
	 viewBox="0 0 2637.049 914.773" style="enable-background:new 0 0 2637.049 914.773;" xml:space="preserve">
<style type="text/css">
	.st0{fill:url(#SVGID_1_);}
	.st1{fill:url(#SVGID_2_);}
	.st2{fill:url(#SVGID_3_);}
	.st3{fill:url(#SVGID_4_);}
	.st4{fill:url(#SVGID_5_);}
	.st5{fill:url(#SVGID_6_);}
	.st6{fill:url(#SVGID_7_);}
	.st7{fill:url(#SVGID_8_);}
	.st8{fill:url(#SVGID_9_);}
	.st9{fill:url(#SVGID_10_);}
	.st10{fill:url(#SVGID_11_);}
	.st11{fill:url(#SVGID_12_);}
</style>
<g>
	<g>
		
			<linearGradient id="SVGID_1_" gradientUnits="userSpaceOnUse" x1="361.3995" y1="86.905" x2="361.3995" y2="841.813" gradientTransform="matrix(1 0 0 -1 0 916)">
			<stop  offset="0" style="stop-color:#88673C"/>
			<stop  offset="0.0332" style="stop-color:#6D542B"/>
			<stop  offset="0.0588" style="stop-color:#6D542B"/>
			<stop  offset="0.0814" style="stop-color:#8A6F3D"/>
			<stop  offset="0.1071" style="stop-color:#C0A367"/>
			<stop  offset="0.1086" style="stop-color:#C3A76B"/>
			<stop  offset="0.1238" style="stop-color:#DCC793"/>
			<stop  offset="0.1359" style="stop-color:#EBDCAB"/>
			<stop  offset="0.1433" style="stop-color:#F1E3B4"/>
			<stop  offset="0.1689" style="stop-color:#F1E3B4"/>
			<stop  offset="0.1832" style="stop-color:#EFE1B1"/>
			<stop  offset="0.1947" style="stop-color:#EAD9A7"/>
			<stop  offset="0.2051" style="stop-color:#E2CD96"/>
			<stop  offset="0.273" style="stop-color:#AA8D52"/>
			<stop  offset="0.3228" style="stop-color:#886A38"/>
			<stop  offset="0.5445" style="stop-color:#886A38"/>
			<stop  offset="0.635" style="stop-color:#9B7C45"/>
			<stop  offset="0.8235" style="stop-color:#CAB076"/>
			<stop  offset="0.8537" style="stop-color:#E9D6A2"/>
			<stop  offset="0.8839" style="stop-color:#FCF6D4"/>
			<stop  offset="0.9291" style="stop-color:#FCF6D4"/>
			<stop  offset="0.9397" style="stop-color:#E7D59B"/>
			<stop  offset="0.9548" style="stop-color:#C5A86E"/>
			<stop  offset="0.9744" style="stop-color:#795B34"/>
			<stop  offset="1" style="stop-color:#795B34"/>
		</linearGradient>
		<path class="st0" d="M684.274,648.698v180.397H38.525v-13.79c0-62.047,16.464-116.427,49.408-163.16
			c24.507-35.225,63.949-72.766,118.349-112.604c33.699-25.279,83.878-57.452,150.521-96.518
			c39.067-22.981,65.297-41.939,78.709-56.876c13.392-14.937,20.108-32.353,20.108-52.282c0-49.784-30.27-74.686-90.773-74.686
			c-59.75,0-95.369,28.725-106.859,86.177c-2.297,13.034-3.843,30.268-4.596,51.706H52.313c0-98.044,20.682-171.582,62.047-220.612
			c57.451-68.17,142.856-102.263,256.232-102.263c91.15,0,163.915,21.831,218.315,65.495c54.38,43.662,81.579,102.263,81.579,175.8
			c0,45.207-9.765,83.878-29.299,116.05c-19.534,32.174-52.28,63.969-98.241,95.369c-35.243,24.525-82.352,53.25-141.33,86.177
			c-25.279,13.789-49.03,28.725-71.239,44.812c68.17-6.123,123.322-9.192,165.459-9.192H684.274z"/>
		<linearGradient id="SVGID_2_" gradientUnits="userSpaceOnUse" x1="30.525" y1="451.641" x2="692.2739" y2="451.641">
			<stop  offset="0" style="stop-color:#BA8B01"/>
			<stop  offset="0.0438" style="stop-color:#CDAA37"/>
			<stop  offset="0.1121" style="stop-color:#E8D886"/>
			<stop  offset="0.1607" style="stop-color:#F8F4B8"/>
			<stop  offset="0.1847" style="stop-color:#FFFFCB"/>
			<stop  offset="0.2986" style="stop-color:#FFFFCB"/>
			<stop  offset="0.3078" style="stop-color:#FDF9C1"/>
			<stop  offset="0.3415" style="stop-color:#F5E6A0"/>
			<stop  offset="0.374" style="stop-color:#F0D989"/>
			<stop  offset="0.4043" style="stop-color:#EDD17B"/>
			<stop  offset="0.4303" style="stop-color:#ECCE76"/>
			<stop  offset="0.4892" style="stop-color:#A26F14"/>
			<stop  offset="0.6051" style="stop-color:#A26F14"/>
			<stop  offset="0.6074" style="stop-color:#A67418"/>
			<stop  offset="0.624" style="stop-color:#C19234"/>
			<stop  offset="0.6402" style="stop-color:#D4A848"/>
			<stop  offset="0.6558" style="stop-color:#E0B654"/>
			<stop  offset="0.6699" style="stop-color:#E4BA58"/>
			<stop  offset="0.6716" style="stop-color:#D9A94D"/>
			<stop  offset="0.6756" style="stop-color:#C38737"/>
			<stop  offset="0.6793" style="stop-color:#B36F27"/>
			<stop  offset="0.6828" style="stop-color:#A9601D"/>
			<stop  offset="0.6857" style="stop-color:#A65B1A"/>
			<stop  offset="0.6954" style="stop-color:#AA6222"/>
			<stop  offset="0.7104" style="stop-color:#B57637"/>
			<stop  offset="0.7287" style="stop-color:#C6965B"/>
			<stop  offset="0.7498" style="stop-color:#DEC38B"/>
			<stop  offset="0.7728" style="stop-color:#FDFCC9"/>
			<stop  offset="0.7741" style="stop-color:#FFFFCD"/>
			<stop  offset="0.7957" style="stop-color:#FFFFCD"/>
			<stop  offset="0.8468" style="stop-color:#E5BD5D"/>
			<stop  offset="0.8861" style="stop-color:#BB913B"/>
			<stop  offset="0.9116" style="stop-color:#BB913B"/>
			<stop  offset="0.9147" style="stop-color:#BE9337"/>
			<stop  offset="0.925" style="stop-color:#C39830"/>
			<stop  offset="0.9509" style="stop-color:#C5992E"/>
			<stop  offset="1" style="stop-color:#7F470A"/>
		</linearGradient>
		<path class="st1" d="M370.592,74.187c91.15,0,163.915,21.831,218.315,65.495c54.38,43.662,81.579,102.263,81.579,175.8
			c0,45.207-9.765,83.878-29.299,116.05c-19.534,32.174-52.28,63.969-98.241,95.369c-35.243,24.525-82.352,53.25-141.33,86.177
			c-25.279,13.789-49.03,28.725-71.239,44.812c68.17-6.123,123.322-9.192,165.459-9.192h188.438v180.397H38.525v-13.79
			c0-62.047,16.464-116.427,49.408-163.16c24.507-35.225,63.949-72.766,118.349-112.604c33.699-25.279,83.878-57.452,150.521-96.518
			c39.067-22.981,65.297-41.939,78.709-56.876c13.392-14.937,20.108-32.353,20.108-52.282c0-49.784-30.27-74.686-90.773-74.686
			c-59.75,0-95.369,28.725-106.859,86.177c-2.297,13.034-3.843,30.268-4.596,51.706H52.313c0-98.044,20.682-171.582,62.047-220.612
			C171.811,108.28,257.216,74.187,370.592,74.187 M370.592,66.187c-57.441,0-108.599,8.794-152.053,26.138
			c-43.738,17.457-80.847,44.026-110.296,78.97c-21.324,25.276-37.515,57.211-48.119,94.915
			c-10.491,37.302-15.81,81.327-15.81,130.852v8h8h201.079h7.724l0.271-7.719c0.731-20.816,2.233-37.808,4.463-50.506
			c10.75-53.601,43.133-79.658,98.997-79.658c28.208,0,49.401,5.67,62.992,16.852c13.31,10.951,19.781,27.252,19.781,49.834
			c0,18.029-5.909,33.384-18.065,46.942c-12.802,14.257-38.645,32.872-76.809,55.321c-66.579,39.029-117.462,71.661-151.228,96.986
			c-54.816,40.147-95.244,78.66-120.153,114.463c-16.86,23.916-29.704,50.202-38.148,78.088
			c-8.423,27.816-12.693,57.975-12.693,89.641v13.79v8h8h645.749h8v-8V648.698v-8h-8H495.836c-35.729,0-81.38,2.233-136.006,6.647
			c14.61-9.539,29.871-18.655,45.617-27.244l0.035-0.019l0.034-0.019c58.921-32.895,106.687-62.024,141.978-86.58
			c46.669-31.888,80.492-64.792,100.532-97.799c20.212-33.289,30.461-73.731,30.461-120.202c0-37.767-7.113-72.243-21.14-102.471
			c-14.056-30.289-35.397-57.06-63.43-79.567c-27.881-22.378-60.881-39.384-98.086-50.546
			C458.869,71.809,416.733,66.187,370.592,66.187L370.592,66.187z"/>
		<linearGradient id="SVGID_3_" gradientUnits="userSpaceOnUse" x1="38.525" y1="451.641" x2="684.2739" y2="451.641">
			<stop  offset="0" style="stop-color:#C77627"/>
			<stop  offset="0.0485" style="stop-color:#E9A34A"/>
			<stop  offset="0.0698" style="stop-color:#F0B663"/>
			<stop  offset="0.1006" style="stop-color:#F8CC82"/>
			<stop  offset="0.1269" style="stop-color:#FDDA94"/>
			<stop  offset="0.1455" style="stop-color:#FFDF9B"/>
			<stop  offset="0.1551" style="stop-color:#FFE1A2"/>
			<stop  offset="0.1692" style="stop-color:#FFE8B6"/>
			<stop  offset="0.1859" style="stop-color:#FEF2D6"/>
			<stop  offset="0.2" style="stop-color:#FEFDF6"/>
			<stop  offset="0.2303" style="stop-color:#FEFDF6"/>
			<stop  offset="0.244" style="stop-color:#FEF3D9"/>
			<stop  offset="0.2653" style="stop-color:#FFE6B3"/>
			<stop  offset="0.2849" style="stop-color:#FFDC98"/>
			<stop  offset="0.3021" style="stop-color:#FFD687"/>
			<stop  offset="0.3152" style="stop-color:#FFD481"/>
			<stop  offset="0.3358" style="stop-color:#FBCE7C"/>
			<stop  offset="0.3637" style="stop-color:#F1BD70"/>
			<stop  offset="0.3957" style="stop-color:#E1A05B"/>
			<stop  offset="0.4306" style="stop-color:#CA793D"/>
			<stop  offset="0.4364" style="stop-color:#C67238"/>
			<stop  offset="0.4477" style="stop-color:#B15C28"/>
			<stop  offset="0.4638" style="stop-color:#994416"/>
			<stop  offset="0.4787" style="stop-color:#8A350B"/>
			<stop  offset="0.4909" style="stop-color:#853007"/>
			<stop  offset="0.5455" style="stop-color:#853007"/>
			<stop  offset="0.6121" style="stop-color:#FDC25D"/>
			<stop  offset="0.6364" style="stop-color:#FFD484"/>
			<stop  offset="0.7273" style="stop-color:#FFFFFA"/>
			<stop  offset="0.8061" style="stop-color:#FFFFFA"/>
			<stop  offset="0.8848" style="stop-color:#FFD27A"/>
			<stop  offset="0.9576" style="stop-color:#E39E45"/>
			<stop  offset="1" style="stop-color:#C78133"/>
		</linearGradient>
		<path class="st2" d="M370.592,80.187c44.777,0,85.56,5.424,121.215,16.12c35.471,10.641,66.876,26.809,93.344,48.053
			c26.337,21.147,46.355,46.227,59.496,74.544c13.165,28.368,19.84,60.861,19.84,96.577c0,43.872-9.564,81.869-28.428,112.936
			c-19.002,31.298-51.468,62.766-96.497,93.529l-0.021,0.015l-0.021,0.015c-34.911,24.294-82.282,53.177-140.803,85.849
			c-25.4,13.857-49.577,29.066-71.859,45.206l-17.65,12.785l21.707-1.95c67.73-6.083,123.218-9.168,164.922-9.168h182.438v168.397
			H44.525v-7.79c0-30.29,4.069-59.085,12.093-85.584c8.009-26.451,20.195-51.388,36.241-74.149
			c24.03-34.539,63.384-71.949,116.969-111.19l0.028-0.02l0.028-0.021c33.344-25.012,83.796-57.359,149.963-96.146
			c39.959-23.506,66.17-42.49,80.134-58.042c14.36-16.016,21.641-34.954,21.641-56.287c0-26.655-8.373-47.059-24.886-60.645
			c-16.163-13.298-40.349-20.041-71.887-20.041c-62.734,0-100.666,30.617-112.742,91l-0.014,0.068l-0.012,0.068
			c-2.138,12.129-3.634,27.834-4.456,46.747H58.34c0.41-45.795,5.539-86.495,15.261-121.062
			c10.059-35.767,25.316-65.94,45.347-89.684c27.95-33.165,63.203-58.395,104.78-74.989
			C265.524,88.645,314.936,80.187,370.592,80.187 M370.592,74.187c-113.376,0-198.781,34.093-256.232,102.263
			c-41.365,49.03-62.047,122.568-62.047,220.612h201.079c0.753-21.438,2.299-38.672,4.596-51.706
			c11.49-57.452,47.109-86.177,106.859-86.177c60.503,0,90.773,24.902,90.773,74.686c0,19.929-6.716,37.345-20.108,52.282
			c-13.412,14.937-39.642,33.895-78.709,56.876c-66.643,39.066-116.822,71.239-150.521,96.518
			c-54.4,39.838-93.842,77.379-118.349,112.604c-32.944,46.733-49.408,101.113-49.408,163.16v13.79h645.749V648.698H495.836
			c-42.137,0-97.289,3.069-165.459,9.192c22.209-16.087,45.96-31.023,71.239-44.812c58.978-32.927,106.087-61.652,141.33-86.177
			c45.961-31.4,78.707-63.195,98.241-95.369c19.534-32.172,29.299-70.843,29.299-116.05c0-73.537-27.199-132.138-81.579-175.8
			C534.507,96.018,461.742,74.187,370.592,74.187L370.592,74.187z"/>
	</g>
	<g>
		
			<linearGradient id="SVGID_4_" gradientUnits="userSpaceOnUse" x1="1075.5116" y1="75.414" x2="1075.5116" y2="841.812" gradientTransform="matrix(1 0 0 -1 0 916)">
			<stop  offset="0" style="stop-color:#88673C"/>
			<stop  offset="0.0332" style="stop-color:#6D542B"/>
			<stop  offset="0.0588" style="stop-color:#6D542B"/>
			<stop  offset="0.0814" style="stop-color:#8A6F3D"/>
			<stop  offset="0.1071" style="stop-color:#C0A367"/>
			<stop  offset="0.1086" style="stop-color:#C3A76B"/>
			<stop  offset="0.1238" style="stop-color:#DCC793"/>
			<stop  offset="0.1359" style="stop-color:#EBDCAB"/>
			<stop  offset="0.1433" style="stop-color:#F1E3B4"/>
			<stop  offset="0.1689" style="stop-color:#F1E3B4"/>
			<stop  offset="0.1832" style="stop-color:#EFE1B1"/>
			<stop  offset="0.1947" style="stop-color:#EAD9A7"/>
			<stop  offset="0.2051" style="stop-color:#E2CD96"/>
			<stop  offset="0.273" style="stop-color:#AA8D52"/>
			<stop  offset="0.3228" style="stop-color:#886A38"/>
			<stop  offset="0.5445" style="stop-color:#886A38"/>
			<stop  offset="0.635" style="stop-color:#9B7C45"/>
			<stop  offset="0.8235" style="stop-color:#CAB076"/>
			<stop  offset="0.8537" style="stop-color:#E9D6A2"/>
			<stop  offset="0.8839" style="stop-color:#FCF6D4"/>
			<stop  offset="0.9291" style="stop-color:#FCF6D4"/>
			<stop  offset="0.9397" style="stop-color:#E7D59B"/>
			<stop  offset="0.9548" style="stop-color:#C5A86E"/>
			<stop  offset="0.9744" style="stop-color:#795B34"/>
			<stop  offset="1" style="stop-color:#795B34"/>
		</linearGradient>
		<path class="st3" d="M1076.086,74.188c95.745,0,172.729,35.099,230.953,105.297c58.206,70.197,87.327,162.838,87.327,277.902
			c0,115.853-28.925,208.691-86.753,278.493c-57.846,69.805-135.011,104.706-231.527,104.706
			c-96.518,0-173.897-34.901-232.103-104.706c-58.223-69.802-87.326-162.64-87.326-278.493c0-115.064,29.3-207.704,87.901-277.902
			C903.158,109.286,980.321,74.188,1076.086,74.188z M1076.086,243.094c-77.379,0-116.052,74.506-116.052,223.502
			c0,136.734,38.672,205.082,116.052,205.082c76.589,0,114.901-71.814,114.901-215.441
			C1190.987,314.154,1152.675,243.094,1076.086,243.094z"/>
		<linearGradient id="SVGID_5_" gradientUnits="userSpaceOnUse" x1="748.657" y1="457.387" x2="1402.3661" y2="457.387">
			<stop  offset="0" style="stop-color:#BA8B01"/>
			<stop  offset="0.0438" style="stop-color:#CDAA37"/>
			<stop  offset="0.1121" style="stop-color:#E8D886"/>
			<stop  offset="0.1607" style="stop-color:#F8F4B8"/>
			<stop  offset="0.1847" style="stop-color:#FFFFCB"/>
			<stop  offset="0.2986" style="stop-color:#FFFFCB"/>
			<stop  offset="0.3078" style="stop-color:#FDF9C1"/>
			<stop  offset="0.3415" style="stop-color:#F5E6A0"/>
			<stop  offset="0.374" style="stop-color:#F0D989"/>
			<stop  offset="0.4043" style="stop-color:#EDD17B"/>
			<stop  offset="0.4303" style="stop-color:#ECCE76"/>
			<stop  offset="0.4892" style="stop-color:#A26F14"/>
			<stop  offset="0.6051" style="stop-color:#A26F14"/>
			<stop  offset="0.6074" style="stop-color:#A67418"/>
			<stop  offset="0.624" style="stop-color:#C19234"/>
			<stop  offset="0.6402" style="stop-color:#D4A848"/>
			<stop  offset="0.6558" style="stop-color:#E0B654"/>
			<stop  offset="0.6699" style="stop-color:#E4BA58"/>
			<stop  offset="0.6716" style="stop-color:#D9A94D"/>
			<stop  offset="0.6756" style="stop-color:#C38737"/>
			<stop  offset="0.6793" style="stop-color:#B36F27"/>
			<stop  offset="0.6828" style="stop-color:#A9601D"/>
			<stop  offset="0.6857" style="stop-color:#A65B1A"/>
			<stop  offset="0.6954" style="stop-color:#AA6222"/>
			<stop  offset="0.7104" style="stop-color:#B57637"/>
			<stop  offset="0.7287" style="stop-color:#C6965B"/>
			<stop  offset="0.7498" style="stop-color:#DEC38B"/>
			<stop  offset="0.7728" style="stop-color:#FDFCC9"/>
			<stop  offset="0.7741" style="stop-color:#FFFFCD"/>
			<stop  offset="0.7957" style="stop-color:#FFFFCD"/>
			<stop  offset="0.8468" style="stop-color:#E5BD5D"/>
			<stop  offset="0.8861" style="stop-color:#BB913B"/>
			<stop  offset="0.9116" style="stop-color:#BB913B"/>
			<stop  offset="0.9147" style="stop-color:#BE9337"/>
			<stop  offset="0.925" style="stop-color:#C39830"/>
			<stop  offset="0.9509" style="stop-color:#C5992E"/>
			<stop  offset="1" style="stop-color:#7F470A"/>
		</linearGradient>
		<path class="st4" d="M1076.086,74.188c95.745,0,172.729,35.099,230.953,105.297c58.206,70.197,87.327,162.838,87.327,277.902
			c0,115.853-28.925,208.691-86.753,278.493c-57.846,69.805-135.011,104.706-231.527,104.706
			c-96.518,0-173.897-34.901-232.103-104.706c-58.223-69.802-87.326-162.64-87.326-278.493c0-115.064,29.3-207.704,87.901-277.902
			C903.158,109.286,980.321,74.188,1076.086,74.188 M1076.086,671.678c76.589,0,114.901-71.814,114.901-215.441
			c0-142.083-38.312-213.143-114.901-213.143c-77.379,0-116.052,74.506-116.052,223.502
			C960.034,603.33,998.706,671.678,1076.086,671.678 M1076.086,66.188c-48.808,0-93.56,9.098-133.013,27.042
			c-39.505,17.967-74.717,45.263-104.656,81.129c-29.834,35.738-52.514,77.74-67.412,124.84
			c-14.829,46.883-22.348,100.105-22.348,158.188c0,58.472,7.468,111.936,22.196,158.909
			c14.801,47.206,37.339,89.164,66.987,124.708c29.747,35.675,64.919,62.826,104.538,80.698
			c39.545,17.839,84.531,26.884,133.708,26.884c49.176,0,94.113-9.046,133.561-26.887c39.522-17.874,74.555-45.03,104.126-80.714
			c29.449-35.547,51.836-77.503,66.54-124.703c14.633-46.974,22.053-100.434,22.053-158.895c0-58.074-7.471-111.291-22.204-158.175
			c-14.8-47.094-37.33-89.094-66.964-124.834c-29.753-35.872-64.827-63.173-104.246-81.146
			C1169.59,75.287,1124.888,66.188,1076.086,66.188L1076.086,66.188z M1076.086,663.678c-35.912,0-62.107-15.441-80.081-47.206
			c-18.56-32.8-27.971-83.226-27.971-149.876c0-72.857,9.457-128.014,28.109-163.938c18.015-34.697,44.164-51.564,79.943-51.564
			c35.439,0,61.323,16.056,79.129,49.087c18.428,34.183,27.772,86.688,27.772,156.056c0,70.148-9.349,123.245-27.788,157.816
			C1137.388,647.445,1111.51,663.678,1076.086,663.678L1076.086,663.678z"/>
		<linearGradient id="SVGID_6_" gradientUnits="userSpaceOnUse" x1="756.657" y1="457.387" x2="1394.3661" y2="457.387">
			<stop  offset="0" style="stop-color:#C77627"/>
			<stop  offset="0.0485" style="stop-color:#E9A34A"/>
			<stop  offset="0.0698" style="stop-color:#F0B663"/>
			<stop  offset="0.1006" style="stop-color:#F8CC82"/>
			<stop  offset="0.1269" style="stop-color:#FDDA94"/>
			<stop  offset="0.1455" style="stop-color:#FFDF9B"/>
			<stop  offset="0.1551" style="stop-color:#FFE1A2"/>
			<stop  offset="0.1692" style="stop-color:#FFE8B6"/>
			<stop  offset="0.1859" style="stop-color:#FEF2D6"/>
			<stop  offset="0.2" style="stop-color:#FEFDF6"/>
			<stop  offset="0.2303" style="stop-color:#FEFDF6"/>
			<stop  offset="0.244" style="stop-color:#FEF3D9"/>
			<stop  offset="0.2653" style="stop-color:#FFE6B3"/>
			<stop  offset="0.2849" style="stop-color:#FFDC98"/>
			<stop  offset="0.3021" style="stop-color:#FFD687"/>
			<stop  offset="0.3152" style="stop-color:#FFD481"/>
			<stop  offset="0.3358" style="stop-color:#FBCE7C"/>
			<stop  offset="0.3637" style="stop-color:#F1BD70"/>
			<stop  offset="0.3957" style="stop-color:#E1A05B"/>
			<stop  offset="0.4306" style="stop-color:#CA793D"/>
			<stop  offset="0.4364" style="stop-color:#C67238"/>
			<stop  offset="0.4477" style="stop-color:#B15C28"/>
			<stop  offset="0.4638" style="stop-color:#994416"/>
			<stop  offset="0.4787" style="stop-color:#8A350B"/>
			<stop  offset="0.4909" style="stop-color:#853007"/>
			<stop  offset="0.5455" style="stop-color:#853007"/>
			<stop  offset="0.6121" style="stop-color:#FDC25D"/>
			<stop  offset="0.6364" style="stop-color:#FFD484"/>
			<stop  offset="0.7273" style="stop-color:#FFFFFA"/>
			<stop  offset="0.8061" style="stop-color:#FFFFFA"/>
			<stop  offset="0.8848" style="stop-color:#FFD27A"/>
			<stop  offset="0.9576" style="stop-color:#E39E45"/>
			<stop  offset="1" style="stop-color:#C78133"/>
		</linearGradient>
		<path class="st5" d="M1076.086,80.188c46.784,0,89.532,8.675,127.058,25.784c37.482,17.089,70.884,43.111,99.276,77.343
			c28.47,34.335,50.132,74.741,64.385,120.095c14.306,45.523,21.56,97.329,21.56,153.977c0,57.048-7.207,109.107-21.419,154.731
			c-14.158,45.449-35.676,85.8-63.953,119.933c-28.202,34.032-61.549,59.902-99.115,76.891
			c-37.624,17.015-80.619,25.643-127.792,25.643c-47.179,0-90.228-8.628-127.951-25.645c-37.672-16.994-71.164-42.868-99.544-76.904
			c-28.468-34.13-50.129-74.48-64.379-119.929c-14.303-45.616-21.555-97.671-21.555-154.721c0-56.649,7.3-108.451,21.696-153.966
			c14.345-45.354,36.151-85.759,64.811-120.091c28.582-34.24,62.128-60.266,99.705-77.356
			C986.49,88.864,1029.292,80.188,1076.086,80.188 M1076.086,677.678c40.506,0,71.279-19.19,91.465-57.037
			c19.532-36.62,29.436-91.934,29.436-164.404c0-71.713-9.908-126.453-29.448-162.7c-20.191-37.453-50.96-56.443-91.453-56.443
			c-40.926,0-72.003,19.888-92.368,59.113c-19.697,37.937-29.684,95.264-29.684,170.389c0,69.097,10.022,121.842,29.787,156.771
			C1004.213,659.405,1035.256,677.678,1076.086,677.678 M1076.086,74.188c-95.765,0-172.928,35.098-231.528,105.297
			c-58.601,70.198-87.901,162.838-87.901,277.902c0,115.853,29.103,208.691,87.326,278.493
			c58.206,69.805,135.585,104.706,232.103,104.706c96.516,0,173.681-34.901,231.527-104.706
			c57.828-69.802,86.753-162.64,86.753-278.493c0-115.064-29.121-207.705-87.327-277.902
			C1248.815,109.287,1171.831,74.188,1076.086,74.188L1076.086,74.188z M1076.086,671.678c-77.38,0-116.052-68.348-116.052-205.082
			c0-148.996,38.673-223.502,116.052-223.502c76.589,0,114.901,71.06,114.901,213.143
			C1190.987,599.864,1152.675,671.678,1076.086,671.678L1076.086,671.678z"/>
	</g>
	<g>
		
			<linearGradient id="SVGID_7_" gradientUnits="userSpaceOnUse" x1="1690.2321" y1="86.905" x2="1690.2321" y2="832.62" gradientTransform="matrix(1 0 0 -1 0 916)">
			<stop  offset="0" style="stop-color:#88673C"/>
			<stop  offset="0.0332" style="stop-color:#6D542B"/>
			<stop  offset="0.0588" style="stop-color:#6D542B"/>
			<stop  offset="0.0814" style="stop-color:#8A6F3D"/>
			<stop  offset="0.1071" style="stop-color:#C0A367"/>
			<stop  offset="0.1086" style="stop-color:#C3A76B"/>
			<stop  offset="0.1238" style="stop-color:#DCC793"/>
			<stop  offset="0.1359" style="stop-color:#EBDCAB"/>
			<stop  offset="0.1433" style="stop-color:#F1E3B4"/>
			<stop  offset="0.1689" style="stop-color:#F1E3B4"/>
			<stop  offset="0.1832" style="stop-color:#EFE1B1"/>
			<stop  offset="0.1947" style="stop-color:#EAD9A7"/>
			<stop  offset="0.2051" style="stop-color:#E2CD96"/>
			<stop  offset="0.273" style="stop-color:#AA8D52"/>
			<stop  offset="0.3228" style="stop-color:#886A38"/>
			<stop  offset="0.5445" style="stop-color:#886A38"/>
			<stop  offset="0.635" style="stop-color:#9B7C45"/>
			<stop  offset="0.8235" style="stop-color:#CAB076"/>
			<stop  offset="0.8537" style="stop-color:#E9D6A2"/>
			<stop  offset="0.8839" style="stop-color:#FCF6D4"/>
			<stop  offset="0.9291" style="stop-color:#FCF6D4"/>
			<stop  offset="0.9397" style="stop-color:#E7D59B"/>
			<stop  offset="0.9548" style="stop-color:#C5A86E"/>
			<stop  offset="0.9744" style="stop-color:#795B34"/>
			<stop  offset="1" style="stop-color:#795B34"/>
		</linearGradient>
		<path class="st6" d="M1889.587,83.38v745.715h-224.059V401.659h-174.651V244.243c39.067-0.754,69.317-4.201,90.773-10.341
			c78.132-22.208,121.023-72.388,128.689-150.521L1889.587,83.38L1889.587,83.38z"/>
		<linearGradient id="SVGID_8_" gradientUnits="userSpaceOnUse" x1="1482.8771" y1="456.2375" x2="1897.587" y2="456.2375">
			<stop  offset="0" style="stop-color:#BA8B01"/>
			<stop  offset="0.0438" style="stop-color:#CDAA37"/>
			<stop  offset="0.1121" style="stop-color:#E8D886"/>
			<stop  offset="0.1607" style="stop-color:#F8F4B8"/>
			<stop  offset="0.1847" style="stop-color:#FFFFCB"/>
			<stop  offset="0.2986" style="stop-color:#FFFFCB"/>
			<stop  offset="0.3078" style="stop-color:#FDF9C1"/>
			<stop  offset="0.3415" style="stop-color:#F5E6A0"/>
			<stop  offset="0.374" style="stop-color:#F0D989"/>
			<stop  offset="0.4043" style="stop-color:#EDD17B"/>
			<stop  offset="0.4303" style="stop-color:#ECCE76"/>
			<stop  offset="0.4892" style="stop-color:#A26F14"/>
			<stop  offset="0.6051" style="stop-color:#A26F14"/>
			<stop  offset="0.6074" style="stop-color:#A67418"/>
			<stop  offset="0.624" style="stop-color:#C19234"/>
			<stop  offset="0.6402" style="stop-color:#D4A848"/>
			<stop  offset="0.6558" style="stop-color:#E0B654"/>
			<stop  offset="0.6699" style="stop-color:#E4BA58"/>
			<stop  offset="0.6716" style="stop-color:#D9A94D"/>
			<stop  offset="0.6756" style="stop-color:#C38737"/>
			<stop  offset="0.6793" style="stop-color:#B36F27"/>
			<stop  offset="0.6828" style="stop-color:#A9601D"/>
			<stop  offset="0.6857" style="stop-color:#A65B1A"/>
			<stop  offset="0.6954" style="stop-color:#AA6222"/>
			<stop  offset="0.7104" style="stop-color:#B57637"/>
			<stop  offset="0.7287" style="stop-color:#C6965B"/>
			<stop  offset="0.7498" style="stop-color:#DEC38B"/>
			<stop  offset="0.7728" style="stop-color:#FDFCC9"/>
			<stop  offset="0.7741" style="stop-color:#FFFFCD"/>
			<stop  offset="0.7957" style="stop-color:#FFFFCD"/>
			<stop  offset="0.8468" style="stop-color:#E5BD5D"/>
			<stop  offset="0.8861" style="stop-color:#BB913B"/>
			<stop  offset="0.9116" style="stop-color:#BB913B"/>
			<stop  offset="0.9147" style="stop-color:#BE9337"/>
			<stop  offset="0.925" style="stop-color:#C39830"/>
			<stop  offset="0.9509" style="stop-color:#C5992E"/>
			<stop  offset="1" style="stop-color:#7F470A"/>
		</linearGradient>
		<path class="st7" d="M1889.587,83.38v0.001V83.38 M1889.587,83.381v745.714h-224.059V401.659h-174.651V244.243
			c39.067-0.754,69.317-4.201,90.773-10.341c78.132-22.208,121.023-72.388,128.689-150.521l179.248-0.001 M1897.587,75.38h-8
			l-179.248,0.001h-7.254l-0.708,7.219c-7.38,75.222-47.586,122.196-122.914,143.607c-20.704,5.925-50.556,9.301-88.74,10.038
			l-7.846,0.151v7.847v157.416v8h8h166.651v419.436v8h8h224.059h8v-8V83.38V75.38L1897.587,75.38z"/>
		<linearGradient id="SVGID_9_" gradientUnits="userSpaceOnUse" x1="1490.8771" y1="456.2375" x2="1889.587" y2="456.2375">
			<stop  offset="0" style="stop-color:#C77627"/>
			<stop  offset="0.0485" style="stop-color:#E9A34A"/>
			<stop  offset="0.0698" style="stop-color:#F0B663"/>
			<stop  offset="0.1006" style="stop-color:#F8CC82"/>
			<stop  offset="0.1269" style="stop-color:#FDDA94"/>
			<stop  offset="0.1455" style="stop-color:#FFDF9B"/>
			<stop  offset="0.1551" style="stop-color:#FFE1A2"/>
			<stop  offset="0.1692" style="stop-color:#FFE8B6"/>
			<stop  offset="0.1859" style="stop-color:#FEF2D6"/>
			<stop  offset="0.2" style="stop-color:#FEFDF6"/>
			<stop  offset="0.2303" style="stop-color:#FEFDF6"/>
			<stop  offset="0.244" style="stop-color:#FEF3D9"/>
			<stop  offset="0.2653" style="stop-color:#FFE6B3"/>
			<stop  offset="0.2849" style="stop-color:#FFDC98"/>
			<stop  offset="0.3021" style="stop-color:#FFD687"/>
			<stop  offset="0.3152" style="stop-color:#FFD481"/>
			<stop  offset="0.3358" style="stop-color:#FBCE7C"/>
			<stop  offset="0.3637" style="stop-color:#F1BD70"/>
			<stop  offset="0.3957" style="stop-color:#E1A05B"/>
			<stop  offset="0.4306" style="stop-color:#CA793D"/>
			<stop  offset="0.4364" style="stop-color:#C67238"/>
			<stop  offset="0.4477" style="stop-color:#B15C28"/>
			<stop  offset="0.4638" style="stop-color:#994416"/>
			<stop  offset="0.4787" style="stop-color:#8A350B"/>
			<stop  offset="0.4909" style="stop-color:#853007"/>
			<stop  offset="0.5455" style="stop-color:#853007"/>
			<stop  offset="0.6121" style="stop-color:#FDC25D"/>
			<stop  offset="0.6364" style="stop-color:#FFD484"/>
			<stop  offset="0.7273" style="stop-color:#FFFFFA"/>
			<stop  offset="0.8061" style="stop-color:#FFFFFA"/>
			<stop  offset="0.8848" style="stop-color:#FFD27A"/>
			<stop  offset="0.9576" style="stop-color:#E39E45"/>
			<stop  offset="1" style="stop-color:#C78133"/>
		</linearGradient>
		<path class="st8" d="M1883.587,89.38v733.715h-212.059V401.659v-6h-6h-168.651V250.106c36.612-0.989,65.668-4.496,86.413-10.432
			c78.555-22.328,123.084-72.875,132.428-150.292L1883.587,89.38 M1889.587,83.38v0.001V83.38L1889.587,83.38z M1889.587,83.381
			h-179.248c-7.666,78.133-50.557,128.313-128.689,150.521c-21.456,6.14-51.706,9.587-90.773,10.341v157.416h174.651v427.436
			h224.059V83.38V83.381z"/>
	</g>
	<g>
		
			<linearGradient id="SVGID_10_" gradientUnits="userSpaceOnUse" x1="2311.8445" y1="86.904" x2="2311.8445" y2="831.471" gradientTransform="matrix(1 0 0 -1 0 916)">
			<stop  offset="0" style="stop-color:#88673C"/>
			<stop  offset="0.0332" style="stop-color:#6D542B"/>
			<stop  offset="0.0588" style="stop-color:#6D542B"/>
			<stop  offset="0.0814" style="stop-color:#8A6F3D"/>
			<stop  offset="0.1071" style="stop-color:#C0A367"/>
			<stop  offset="0.1086" style="stop-color:#C3A76B"/>
			<stop  offset="0.1238" style="stop-color:#DCC793"/>
			<stop  offset="0.1359" style="stop-color:#EBDCAB"/>
			<stop  offset="0.1433" style="stop-color:#F1E3B4"/>
			<stop  offset="0.1689" style="stop-color:#F1E3B4"/>
			<stop  offset="0.1832" style="stop-color:#EFE1B1"/>
			<stop  offset="0.1947" style="stop-color:#EAD9A7"/>
			<stop  offset="0.2051" style="stop-color:#E2CD96"/>
			<stop  offset="0.273" style="stop-color:#AA8D52"/>
			<stop  offset="0.3228" style="stop-color:#886A38"/>
			<stop  offset="0.5445" style="stop-color:#886A38"/>
			<stop  offset="0.635" style="stop-color:#9B7C45"/>
			<stop  offset="0.8235" style="stop-color:#CAB076"/>
			<stop  offset="0.8537" style="stop-color:#E9D6A2"/>
			<stop  offset="0.8839" style="stop-color:#FCF6D4"/>
			<stop  offset="0.9291" style="stop-color:#FCF6D4"/>
			<stop  offset="0.9397" style="stop-color:#E7D59B"/>
			<stop  offset="0.9548" style="stop-color:#C5A86E"/>
			<stop  offset="0.9744" style="stop-color:#795B34"/>
			<stop  offset="1" style="stop-color:#795B34"/>
		</linearGradient>
		<path class="st9" d="M2598.524,84.529v173.502c-36.764,39.066-65.885,74.686-87.324,106.859
			c-90.395,133.285-135.581,283.808-135.581,451.567v12.639h-236.701v-8.044c0-51.312,11.868-115.28,35.621-191.887
			c23.733-76.589,53.23-145.351,88.473-206.249c35.223-60.898,76.588-112.03,124.094-153.394
			c-71.237,3.069-117.594,4.596-139.033,4.596h-222.908V84.529H2598.524z"/>
		<linearGradient id="SVGID_11_" gradientUnits="userSpaceOnUse" x1="2017.165" y1="456.8125" x2="2606.5239" y2="456.8125">
			<stop  offset="0" style="stop-color:#BA8B01"/>
			<stop  offset="0.0438" style="stop-color:#CDAA37"/>
			<stop  offset="0.1121" style="stop-color:#E8D886"/>
			<stop  offset="0.1607" style="stop-color:#F8F4B8"/>
			<stop  offset="0.1847" style="stop-color:#FFFFCB"/>
			<stop  offset="0.2986" style="stop-color:#FFFFCB"/>
			<stop  offset="0.3078" style="stop-color:#FDF9C1"/>
			<stop  offset="0.3415" style="stop-color:#F5E6A0"/>
			<stop  offset="0.374" style="stop-color:#F0D989"/>
			<stop  offset="0.4043" style="stop-color:#EDD17B"/>
			<stop  offset="0.4303" style="stop-color:#ECCE76"/>
			<stop  offset="0.4892" style="stop-color:#A26F14"/>
			<stop  offset="0.6051" style="stop-color:#A26F14"/>
			<stop  offset="0.6074" style="stop-color:#A67418"/>
			<stop  offset="0.624" style="stop-color:#C19234"/>
			<stop  offset="0.6402" style="stop-color:#D4A848"/>
			<stop  offset="0.6558" style="stop-color:#E0B654"/>
			<stop  offset="0.6699" style="stop-color:#E4BA58"/>
			<stop  offset="0.6716" style="stop-color:#D9A94D"/>
			<stop  offset="0.6756" style="stop-color:#C38737"/>
			<stop  offset="0.6793" style="stop-color:#B36F27"/>
			<stop  offset="0.6828" style="stop-color:#A9601D"/>
			<stop  offset="0.6857" style="stop-color:#A65B1A"/>
			<stop  offset="0.6954" style="stop-color:#AA6222"/>
			<stop  offset="0.7104" style="stop-color:#B57637"/>
			<stop  offset="0.7287" style="stop-color:#C6965B"/>
			<stop  offset="0.7498" style="stop-color:#DEC38B"/>
			<stop  offset="0.7728" style="stop-color:#FDFCC9"/>
			<stop  offset="0.7741" style="stop-color:#FFFFCD"/>
			<stop  offset="0.7957" style="stop-color:#FFFFCD"/>
			<stop  offset="0.8468" style="stop-color:#E5BD5D"/>
			<stop  offset="0.8861" style="stop-color:#BB913B"/>
			<stop  offset="0.9116" style="stop-color:#BB913B"/>
			<stop  offset="0.9147" style="stop-color:#BE9337"/>
			<stop  offset="0.925" style="stop-color:#C39830"/>
			<stop  offset="0.9509" style="stop-color:#C5992E"/>
			<stop  offset="1" style="stop-color:#7F470A"/>
		</linearGradient>
		<path class="st10" d="M2598.524,84.529v173.502c-36.764,39.066-65.885,74.686-87.324,106.859
			c-90.395,133.285-135.581,283.808-135.581,451.567v12.639h-236.701v-8.044c0-51.312,11.868-115.28,35.621-191.887
			c23.733-76.589,53.23-145.351,88.473-206.249c35.223-60.898,76.588-112.03,124.094-153.394
			c-71.237,3.069-117.594,4.596-139.033,4.596h-222.908V84.529H2598.524 M2606.524,76.529h-8h-573.359h-8v8v189.589v8h8h222.908
			c19.258,0,58.672-1.233,117.314-3.669c-41.217,39.052-77.918,86.204-109.3,140.462c-35.382,61.137-65.389,131.081-89.189,207.887
			c-23.874,76.997-35.979,142.355-35.979,194.255v8.044v8h8h236.701h8v-8v-12.639c0-165.357,45.152-315.775,134.202-447.077
			l0.018-0.027l0.018-0.027c21.061-31.606,50.162-67.207,86.493-105.813l2.174-2.31v-3.172V84.529V76.529L2606.524,76.529z"/>
		<linearGradient id="SVGID_12_" gradientUnits="userSpaceOnUse" x1="2025.165" y1="456.8125" x2="2598.5239" y2="456.8125">
			<stop  offset="0" style="stop-color:#C77627"/>
			<stop  offset="0.0485" style="stop-color:#E9A34A"/>
			<stop  offset="0.0698" style="stop-color:#F0B663"/>
			<stop  offset="0.1006" style="stop-color:#F8CC82"/>
			<stop  offset="0.1269" style="stop-color:#FDDA94"/>
			<stop  offset="0.1455" style="stop-color:#FFDF9B"/>
			<stop  offset="0.1551" style="stop-color:#FFE1A2"/>
			<stop  offset="0.1692" style="stop-color:#FFE8B6"/>
			<stop  offset="0.1859" style="stop-color:#FEF2D6"/>
			<stop  offset="0.2" style="stop-color:#FEFDF6"/>
			<stop  offset="0.2303" style="stop-color:#FEFDF6"/>
			<stop  offset="0.244" style="stop-color:#FEF3D9"/>
			<stop  offset="0.2653" style="stop-color:#FFE6B3"/>
			<stop  offset="0.2849" style="stop-color:#FFDC98"/>
			<stop  offset="0.3021" style="stop-color:#FFD687"/>
			<stop  offset="0.3152" style="stop-color:#FFD481"/>
			<stop  offset="0.3358" style="stop-color:#FBCE7C"/>
			<stop  offset="0.3637" style="stop-color:#F1BD70"/>
			<stop  offset="0.3957" style="stop-color:#E1A05B"/>
			<stop  offset="0.4306" style="stop-color:#CA793D"/>
			<stop  offset="0.4364" style="stop-color:#C67238"/>
			<stop  offset="0.4477" style="stop-color:#B15C28"/>
			<stop  offset="0.4638" style="stop-color:#994416"/>
			<stop  offset="0.4787" style="stop-color:#8A350B"/>
			<stop  offset="0.4909" style="stop-color:#853007"/>
			<stop  offset="0.5455" style="stop-color:#853007"/>
			<stop  offset="0.6121" style="stop-color:#FDC25D"/>
			<stop  offset="0.6364" style="stop-color:#FFD484"/>
			<stop  offset="0.7273" style="stop-color:#FFFFFA"/>
			<stop  offset="0.8061" style="stop-color:#FFFFFA"/>
			<stop  offset="0.8848" style="stop-color:#FFD27A"/>
			<stop  offset="0.9576" style="stop-color:#E39E45"/>
			<stop  offset="1" style="stop-color:#C78133"/>
		</linearGradient>
		<path class="st11" d="M2592.524,90.529v165.126c-36.108,38.508-65.141,74.13-86.29,105.867
			c-90.651,133.663-136.615,286.725-136.615,454.935v6.639h-224.701v-2.044c0-50.493,11.894-114.455,35.352-190.111
			c23.49-75.807,53.076-144.785,87.936-205.021c34.727-60.04,76.056-111.138,122.84-151.873l12.929-11.257l-17.127,0.738
			c-70.703,3.046-117.394,4.59-138.775,4.59h-216.908V90.529H2592.524 M2598.524,84.529h-573.359v189.589h222.908
			c21.439,0,67.796-1.527,139.033-4.596c-47.506,41.364-88.871,92.496-124.094,153.394c-35.243,60.898-64.74,129.66-88.473,206.249
			c-23.753,76.607-35.621,140.575-35.621,191.887v8.044h236.701v-12.639c0-167.759,45.186-318.282,135.581-451.567
			c21.439-32.173,50.56-67.793,87.324-106.859V84.529L2598.524,84.529z"/>
	</g>
</g>
</svg>
