<svg xmlns="http://www.w3.org/2000/svg" width="200" height="80" viewBox="-28.14 -6.875 243.88 41.25"><path d="M97.3.1l-.2-.1-5.5 4.6v.1l5.7-1.3-.4-1.2zm-84 25.1a5.3 5.3 0 01-3.8 1.6c-4.4 0-5.5-3.9-5.5-8.5s1-8.5 5.4-8.5a4.6 4.6 0 013.6 1.6l2.5 3.8h.2V9.5h-.2l-2.3 1.2a5.9 5.9 0 00-3.8-1.4C5.1 9.3 0 12.6 0 18.4s5 9.1 9.5 9.1a6.2 6.2 0 004-1.5l2.2 1.3h.2v-6h-.2zm16.4-16c-4.2 0-9.2 3.6-9.2 9.1s5 9.1 9.2 9.1c4.2 0 9.2-3.6 9.2-9.1S34 9.2 29.7 9.2zm0 17.6c-4.2 0-5.3-3.7-5.3-8.5s1.1-8.5 5.3-8.5c4.2 0 5.3 3.7 5.3 8.5s-1 8.5-5.3 8.5zM57 21h-.1L49.1 9.5h-7v.5h2.1v16.6h-2.1v.5h5v-.5h-2.2V10l12.6 17.4h.2V10h2.1v-.5h-5v.5H57zM71.5 9.5h-7.9v.5h2.3v16.6h-2.3v.5h7.9c3.9 0 10.4-1.7 10.4-8.9s-6.5-8.7-10.4-8.7zm-.2 17.1h-1.9V10h1.9c4.6 0 6.7 3.3 6.7 8.3 0 5-2.1 8.3-6.7 8.3zm26.3 0H91v-8.7h3.3a13 13 0 012.3 3.4h.2V14h-.2a13 13 0 01-2.3 3.4H91V10h5.9c1.7 1.1 3.2 4.2 3.2 4.2h.2V9.5H85.2v.5h2.3v16.6h-2.3v.5h15.6v-5.9h-.2a20.6 20.6 0 01-3 5.4zm29.2-5.6h-.1l-7.8-11.5h-7.1v.5h2.2v16.6h-2.2v.5h5v-.5h-2.1V10l12.6 17.4h.1V10h2.2v-.5h-5v.5h2.2zm14.1-12.1h-.2l-7.5 17.6h-2.1v.5h4.7v-.5h-2l2.7-6.3h5.7l2.9 6.3h-2.3v.5h8.2v-.5h-2.1zm-4.1 10.9l2.6-6.1 2.7 6.1zm26.6-3l-3.5-1.2c-1.7-.6-3.1-1.4-3.1-3.1 0-1.7 1.5-2.8 3.8-2.8a3.8 3.8 0 013.1 1.2l2.5 3.8h.2V9.1h-.2l-2.3 1.2a4.9 4.9 0 00-3.3-1.2 5.3 5.3 0 00-5.6 5.2c0 2.5 1.8 3.8 3.7 4.5l3.5 1.3c1.9.7 3.1 1.5 3.1 3.3 0 1.8-1.2 3.3-4.2 3.3a7 7 0 01-4-1.5l-2.6-4.3h-.3V27h.3l2.2-1.2a7.4 7.4 0 004.2 1.5c3.8 0 6.3-2.7 6.3-5.7s-1.6-4.1-3.8-4.8zm7.9-7.3V15h.2a28 28 0 013.1-5h3.1v16.6h-2.8v.5h9.1v-.5h-2.8V10h3.1a28 28 0 013.1 5h.2V9.6h-16.3z"/></svg>