<svg xmlns="http://www.w3.org/2000/svg" xmlns:xlink="http://www.w3.org/1999/xlink" width="200px" height="80px" viewBox="0 0 200 80" version="1.1">
    <title>danone</title>
    <g id="Page-1" stroke="none" stroke-width="1" fill="none" fill-rule="evenodd">
        <g id="Home" transform="translate(-432.000000, -1595.000000)" fill="#000000">
            <g id="Group-4" transform="translate(0.000000, 1260.000000)">
                <g id="Group-2" transform="translate(56.000000, 334.000000)">
                    <g id="danone" transform="translate(376.000000, 1.000000)">
                        <g transform="translate(54.000000, 18.000000)">
                            <path d="M41.9121281,0.273693961 C49.3774971,0.273693961 56.9748018,0.525279696 64.4484168,1.43961139 C72.0072403,2.36476357 79.4891012,3.96349146 86.6768551,6.65238406 C87.9522348,7.12848577 89.0956787,7.68033093 89.9697535,8.52973966 C91.0032508,9.53604554 91.5694754,10.8128638 91.418299,12.5738991 L91.4210476,28.4394474 L91.4210476,28.5070755 C91.393561,29.2320486 91.2066519,30.0868676 90.7778605,30.8253662 C90.3765557,31.5097624 89.7828444,32.1102998 88.9362562,32.4727863 C82.1140744,35.4024349 75.0829942,37.7558922 67.7605558,39.395197 C60.440866,41.0372068 52.8298179,41.9596539 44.8477003,42.0381025 L44.800973,42.0381025 C37.0002672,41.9163719 29.7273046,40.931707 22.8583956,39.3383894 C15.9894865,37.7423666 9.51638497,35.5431013 3.32089837,32.9894649 C2.29014971,32.5674657 1.54251336,32.0291461 1.01477004,31.3799165 C0.410064164,30.6387127 0.129700529,29.810945 0.0967165717,28.8993184 L0.0967165717,28.8425108 L0.0829732562,11.5675932 C0.0829732562,10.5423514 0.410064164,9.59285313 0.959796781,8.81648273 C1.53426737,8.00224061 2.35336897,7.38006224 3.29890907,7.05274231 C9.67305877,4.84265655 16.1681496,3.1221981 22.7237111,1.96981556 C29.0428875,0.860714991 35.4555185,0.270998102 41.9121281,0.273693961 Z M41.9121281,2.15376167 C29.0511335,2.15105882 16.2423635,4.56132372 3.93385024,8.82730323 C2.8123957,9.21684099 1.99054544,10.290775 1.99328723,11.5675932 L2.00978608,28.8425108 C2.04277004,29.8488167 2.61449196,30.6576486 4.05479142,31.2473655 C16.2643528,36.2843051 29.5541389,39.9199909 44.8312083,40.1580417 C60.5040852,40.00926 74.7366627,36.5196509 88.1721279,30.7496228 C89.1286626,30.338444 89.4804915,29.2645101 89.5134755,28.4394474 L89.5107268,12.4224121 C89.7031332,10.1582239 88.1144059,9.20061025 86.0034327,8.41341935 C71.952267,3.15736471 56.6477109,2.15646907 41.9121281,2.15376167 Z" id="Combined-Shape"/>
                            <path d="M71.6361707,28.8425108 C72.6696681,28.1337685 71.7900959,26.8812964 70.6191654,27.443962 C54.314096,35.2779992 38.0475078,35.3456273 21.4950587,27.5602824 C18.8618395,26.3213359 19.1339571,28.3123066 20.219679,29.0075233 C38.8528661,40.9776941 55.7763847,39.6981708 71.6361707,28.8425108" id="Fill-560"/>
                            <path d="M8.65605342,11.7731825 C8.65605342,11.7731825 8.96390369,12.5982452 8.96390369,15.5901116 C8.96390369,18.5873882 8.91992508,20.2564493 8.91992508,22.1635613 C8.91992508,24.0733784 8.80997856,25.1148509 8.80997856,25.1148509 C8.80997856,25.1148509 10.1568235,25.4178247 12.314524,25.4178247 C14.4749732,25.4178247 16.7673582,24.6820311 18.0894651,23.5756357 C19.4115721,22.4665351 20.6017432,20.884038 20.6017432,18.0463636 C20.6017432,15.2032789 19.3675935,13.6397176 17.7348876,12.6225913 C16.1076791,11.6027598 13.6146416,11.4079909 11.6960748,11.4945548 C9.78025663,11.5784137 8.72202134,11.7731825 8.65605342,11.7731825 Z M83.683561,22.4665351 L80.885422,21.7956645 C80.126791,22.5341632 79.2252295,22.90206 78.1752402,22.8831241 C76.0120424,22.8425472 74.9373151,21.58737 74.5360103,19.5206558 L83.7962562,19.5206558 C83.9254434,18.7821571 83.969422,18.0003765 83.9254434,17.2645829 C83.8374862,15.77406 83.3729621,14.4025624 82.427422,13.2285389 C81.4928766,12.068041 80.0113472,11.4566831 78.0185664,11.4702087 C76.1494755,11.4864395 74.6239675,12.1140281 73.4118071,13.3800258 C72.2766092,14.5702801 71.5949408,16.3773025 71.6279247,18.7388751 C71.65816,20.9787173 72.2381279,22.6450732 73.6536894,24.0084554 C74.6432082,24.9579537 75.9680638,25.4665169 77.7107162,25.4611494 C80.3686734,25.4556964 82.2625022,24.3195446 83.683561,22.4665351 Z M81.1932723,17.2185958 L74.6019782,17.2185958 C74.7201707,15.5197784 76.3446306,13.9805632 78.0185664,13.9886466 C79.7529728,13.9967939 81.1135611,15.1735226 81.1932723,17.2185958 Z M52.1316575,14.042781 C54.3388339,14.042781 56.1282136,16.0121108 56.1282136,18.4359013 C56.1282136,20.862397 54.3388339,22.8263165 52.1316575,22.8263165 C49.9217323,22.8263165 48.1323527,20.862397 48.1323527,18.4359013 C48.1323527,16.0121108 49.9217323,14.042781 52.1316575,14.042781 Z M52.1316575,11.453978 C55.8368553,11.453978 58.8411441,14.5783954 58.8411441,18.4359013 C58.8411441,22.2907021 55.8368553,25.4151195 52.1316575,25.4151195 C48.4264596,25.4151195 45.4221709,22.2907021 45.4221709,18.4359013 C45.4221709,14.5783954 48.4264596,11.453978 52.1316575,11.453978 Z M59.5090692,24.941723 L62.4171547,24.941723 L62.4171547,16.0283416 C65.1575718,18.3899142 67.1338606,21.3628448 68.3487697,24.941723 L70.949005,24.941723 L70.949005,11.8624516 L68.0381708,11.8624516 L68.0381708,18.1735044 C66.347743,15.77406 64.299989,13.6234869 61.9526307,11.8624516 L59.5090692,11.8624516 L59.5090692,24.941723 Z M33.3417966,24.941723 L36.2526308,24.941723 L36.2526308,16.0283416 C38.9930479,18.3899142 40.9693367,21.3628448 42.1814971,24.941723 L44.7817324,24.941723 L44.7817324,11.8624516 L41.8736468,11.8624516 L41.8736468,18.1735044 C40.1804704,15.77406 38.1327164,13.6234869 35.7908554,11.8624516 L33.3417966,11.8624516 L33.3417966,24.941723 Z M25.0325881,11.8624516 L27.8527164,11.8624516 C30.5931335,14.8434975 32.2725667,19.1852205 32.8360426,24.941723 L29.7712833,24.941723 C29.691572,23.9408273 29.5678822,22.9805085 29.4002137,22.0553564 L23.3504063,22.0553564 C23.1827378,22.9778034 23.059048,23.9381222 22.9820854,24.941723 L20.008032,24.941723 C20.7006951,19.0743104 22.3416469,14.6649594 25.0325881,11.8624516 Z M28.8339891,19.6477966 C28.2567699,17.6595309 27.4376683,15.8822649 26.3766843,14.3132934 C25.3239464,15.8876751 24.4993475,17.6622361 23.9166309,19.6477966 L28.8339891,19.6477966 Z M11.8527486,14.0508964 C11.8527486,14.0508964 12.314524,14.0292554 13.040171,14.0292554 C13.7685668,14.0292554 15.4452512,14.1618065 16.6134331,15.2898429 C17.7816149,16.4151742 17.8036042,17.6974027 17.8036042,18.5873882 C17.8036042,19.4746687 17.405048,21.4061268 15.4892299,22.2744713 C13.570663,23.1401108 11.8307593,22.815496 11.8307593,22.815496 L11.8527486,14.0508964 L11.8527486,14.0508964 Z" id="Fill-562"/>
                        </g>
                    </g>
                </g>
            </g>
        </g>
    </g>
</svg>