<?xml version="1.0" encoding="UTF-8"?>
<svg width="32px" height="32px" viewBox="0 0 32 32" version="1.1" xmlns="http://www.w3.org/2000/svg" xmlns:xlink="http://www.w3.org/1999/xlink">
    <title>Instagram-4</title>
    <g id="Page-1" stroke="none" stroke-width="1" fill="none" fill-rule="evenodd">
        <g id="Home" transform="translate(-1286.000000, -5434.000000)" fill-rule="nonzero">
            <g id="Group-9" transform="translate(0.000000, 5175.000000)">
                <g id="Group-6" transform="translate(80.000000, 259.000000)">
                    <g id="Group-16" transform="translate(1166.000000, 0.000000)">
                        <g id="Instagram-4" transform="translate(40.000000, 0.000000)">
                            <circle id="back-65" fill="#000000" cx="16" cy="16" r="16"></circle>
                            <path d="M16,8.65882353 C18.3905882,8.65882353 18.6767059,8.65882353 19.6216471,8.71152941 C20.1900842,8.71648085 20.7532607,8.82096156 21.2856471,9.02023529 C22.0648149,9.32282513 22.6809396,9.93894985 22.9835294,10.7181176 C23.1828031,11.250504 23.2872839,11.8136805 23.2922353,12.3821176 C23.3374118,13.3270588 23.3449412,13.6131765 23.3449412,16.0037647 C23.3449412,18.3943529 23.3449412,18.6804706 23.2922353,19.6254118 C23.2872839,20.1938489 23.1828031,20.7570254 22.9835294,21.2894118 C22.6809396,22.0685796 22.0648149,22.6847043 21.2856471,22.9872941 C20.7532607,23.1865678 20.1900842,23.2910486 19.6216471,23.296 C18.6767059,23.3411765 18.3943529,23.3487059 16,23.3487059 C13.6056471,23.3487059 13.3232941,23.3487059 12.3783529,23.296 C11.8099158,23.2910486 11.2467393,23.1865678 10.7143529,22.9872941 C9.94156552,22.6794861 9.33274838,22.0624786 9.03529412,21.2856471 C8.83602039,20.7532607 8.73153967,20.1900842 8.72658824,19.6216471 C8.68141176,18.6767059 8.67388235,18.3905882 8.67388235,16 C8.67388235,13.6094118 8.67388235,13.3232941 8.72658824,12.3783529 C8.73153967,11.8099158 8.83602039,11.2467393 9.03529412,10.7143529 C9.33797599,9.94607725 9.94607725,9.33797599 10.7143529,9.03529412 C11.2467393,8.83602039 11.8099158,8.73153967 12.3783529,8.72658824 C13.3232941,8.68141176 13.6094118,8.67388235 16,8.67388235 M16,7.05882353 C13.568,7.05882353 13.2630588,7.05882353 12.3068235,7.11152941 C11.5630923,7.12690508 10.8273439,7.26819934 10.1308235,7.52941176 C8.91680063,7.99187514 7.95799279,8.95068299 7.49552941,10.1647059 C7.23431699,10.8612262 7.09302273,11.5969747 7.07764706,12.3407059 C7.03623529,13.2969412 7.02494118,13.6018824 7.02494118,16.0338824 C7.02494118,18.4658824 7.02494118,18.7708235 7.07764706,19.7270588 C7.10764492,20.4613048 7.26034329,21.1853496 7.52941176,21.8691765 C7.99187514,23.0831994 8.95068299,24.0420072 10.1647059,24.5044706 C10.8612262,24.765683 11.5969747,24.9069773 12.3407059,24.9223529 C13.2969412,24.9637647 13.6018824,24.9750588 16.0338824,24.9750588 C18.4658824,24.9750588 18.7708235,24.9750588 19.7270588,24.9223529 C20.47079,24.9069773 21.2065385,24.765683 21.9030588,24.5044706 C23.1170817,24.0420072 24.0758896,23.0831994 24.5383529,21.8691765 C24.7995654,21.1726561 24.9408596,20.4369077 24.9562353,19.6931765 C24.9976471,18.7369412 25.0089412,18.432 25.0089412,16 C25.0089412,13.568 25.0089412,13.2630588 24.9562353,12.3068235 C24.9408596,11.5630923 24.7995654,10.8273439 24.5383529,10.1308235 C24.0758896,8.91680063 23.1170817,7.95799279 21.9030588,7.49552941 C21.2065385,7.23431699 20.47079,7.09302273 19.7270588,7.07764706 C18.7708235,7.03623529 18.4658824,7.02494118 16.0338824,7.02494118 L16,7.05882353 Z" id="Shape" fill="#FFFFFF"></path>
                            <path d="M16,11.3995294 C13.4592303,11.3995294 11.3995294,13.4592303 11.3995294,16 C11.3995294,18.5407697 13.4592303,20.6004706 16,20.6004706 C18.5407697,20.6004706 20.6004706,18.5407697 20.6004706,16 C20.6004706,13.4592303 18.5407697,11.3995294 16,11.3995294 Z M16,18.9854118 C14.3512026,18.9854118 13.0145882,17.6487974 13.0145882,16 C13.0145882,14.3512026 14.3512026,13.0145882 16,13.0145882 C17.6487974,13.0145882 18.9854118,14.3512026 18.9854118,16 C18.9854118,17.6487974 17.6487974,18.9854118 16,18.9854118 Z" id="Shape" fill="#FFFFFF"></path>
                            <circle id="Oval" fill="#FFFFFF" cx="20.7811765" cy="11.2188235" r="1.07670588"></circle>
                        </g>
                    </g>
                </g>
            </g>
        </g>
    </g>
</svg>