<?xml version="1.0" encoding="UTF-8"?>
<svg width="32px" height="32px" viewBox="0 0 32 32" version="1.1" xmlns="http://www.w3.org/2000/svg" xmlns:xlink="http://www.w3.org/1999/xlink">
    <title>Linkedin-7</title>
    <g id="Page-1" stroke="none" stroke-width="1" fill="none" fill-rule="evenodd">
        <g id="Home" transform="translate(-1246.000000, -5434.000000)" fill-rule="nonzero">
            <g id="Group-9" transform="translate(0.000000, 5175.000000)">
                <g id="Group-6" transform="translate(80.000000, 259.000000)">
                    <g id="Linkedin-7" transform="translate(1166.000000, 0.000000)">
                        <circle id="back-64" fill="#000000" cx="16" cy="16" r="16"></circle>
                        <g id="Linkedin-8" transform="translate(6.776471, 6.776471)" fill="#FFFFFF">
                            <path d="M0.493176471,6.15905882 L4.20894118,6.15905882 L4.20894118,18.1082353 L0.493176471,18.1082353 L0.493176471,6.15905882 Z M2.35294118,0.222117647 C3.54223765,0.222117647 4.50635294,1.18623293 4.50635294,2.37552941 C4.50635294,3.56482589 3.54223765,4.52894118 2.35294118,4.52894118 C1.1636447,4.52894118 0.199529412,3.56482589 0.199529412,2.37552941 C0.199529412,1.18623293 1.1636447,0.222117647 2.35294118,0.222117647" id="Shape"></path>
                            <path d="M6.53929412,6.15905882 L10.0969412,6.15905882 L10.0969412,7.79294118 L10.1647059,7.79294118 C10.8908177,6.55219857 12.2405928,5.81148593 13.6771765,5.86541176 C17.4418824,5.86541176 18.1308235,8.33882353 18.1308235,11.5538824 L18.1308235,18.1082353 L14.4188235,18.1082353 L14.4188235,12.2992941 C14.4188235,10.9138824 14.3962353,9.12941176 12.4912941,9.12941176 C10.5863529,9.12941176 10.2625882,10.6352941 10.2625882,12.1976471 L10.2625882,18.1082353 L6.55435294,18.1082353 L6.53929412,6.15905882 Z" id="Path"></path>
                        </g>
                    </g>
                </g>
            </g>
        </g>
    </g>
</svg>