<?xml version="1.0" encoding="UTF-8"?>
<svg width="52px" height="52px" viewBox="0 0 32 32" version="1.1" xmlns="http://www.w3.org/2000/svg" xmlns:xlink="http://www.w3.org/1999/xlink">
    <title>Dribbble-4</title>
    <g id="Page-1" stroke="none" stroke-width="1" fill="none" fill-rule="evenodd">
        <g id="Home" transform="translate(-1326.000000, -5434.000000)" fill-rule="nonzero">
            <g id="Group-9" transform="translate(0.000000, 5175.000000)">
                <g id="Group-6" transform="translate(80.000000, 259.000000)">
                    <g id="Group-16" transform="translate(1166.000000, 0.000000)">
                        <g id="Dribbble-4" transform="translate(80.000000, 0.000000)">
                            <circle id="back-69" fill="#000000" cx="16" cy="16" r="16"></circle>
                            <path d="M20.2277647,22.1741176 C19.9260069,20.4334833 19.4557158,18.7263138 18.8235294,17.0767059 C20.3453008,16.9058672 21.8843132,16.9706277 23.3863529,17.2687059 C23.0355372,19.261889 21.8970996,21.0299274 20.2277647,22.1741176 L20.2277647,22.1741176 Z M11.4597647,21.9444706 C12.7209412,20.0395294 14.4715294,18.1571765 17.344,17.3665882 C18.0538185,19.1561368 18.5589889,21.0202157 18.8498824,22.9232941 C17.943599,23.2916453 16.9745154,23.4808595 15.9962353,23.4804712 C14.3563307,23.4811552 12.7619201,22.941305 11.4597647,21.9444706 L11.4597647,21.9444706 Z M8.51948525,16 L8.51948525,15.7590588 L8.56470588,15.7590588 C11.2301176,15.7590588 13.8804706,15.5821176 16.2522353,14.8856471 C16.4254118,15.2621176 16.6061176,15.6122353 16.768,15.9924706 C13.6470588,16.9110588 11.7007059,18.9628235 10.368,20.9204706 C9.1708943,19.5615261 8.5132784,17.8110088 8.51948525,16 L8.51948525,16 Z M12.7811765,9.22352941 C13.8037333,10.6008945 14.7295612,12.0475005 15.552,13.5529412 C13.3165272,14.0985228 11.0196906,14.3516177 8.71905882,14.3058824 C9.24273991,12.0873043 10.7433241,10.225417 12.8,9.24235294 L12.7811765,9.22352941 Z M20.8451765,10.2851765 C19.8136329,11.5247673 18.4791722,12.4766567 16.9712941,13.0484706 C16.1572021,11.5427344 15.2441394,10.09265 14.2381176,8.70776471 C14.8152681,8.56993798 15.4066209,8.50044139 16,8.50070513 C17.7788895,8.50222025 19.4981615,9.14210471 20.8451765,10.304 L20.8451765,10.2851765 Z M21.8767059,11.3581176 C22.8723351,12.6178675 23.4348016,14.1653104 23.4804706,15.7703529 C21.7526511,15.4383587 19.9816107,15.3963729 18.24,15.6461176 C18.048,15.2131765 17.8635294,14.784 17.6489412,14.3736471 C19.282538,13.7364092 20.7344059,12.7073025 21.8767059,11.3769412 L21.8767059,11.3581176 Z M16,7.03999921 C11.0515286,7.03999921 7.04,11.0515286 7.04,16 C7.04,20.9484714 11.0515286,24.96 16,24.96 C20.9484714,24.96 24.9600008,20.9484714 24.9600008,16 C24.9609992,13.6233541 24.0173228,11.3437624 22.3367802,9.66321979 C20.6562376,7.98267719 18.3766459,7.03900078 16,7.03999921 L16,7.03999921 Z" id="dribble-4" fill="#FFFFFF"></path>
                        </g>
                    </g>
                </g>
            </g>
        </g>
    </g>
</svg>