<svg xmlns="http://www.w3.org/2000/svg" xmlns:xlink="http://www.w3.org/1999/xlink" width="200px" height="80px" viewBox="0 0 200 80" version="1.1">
    <title>jampp</title>
    <g id="Page-1" stroke="none" stroke-width="1" fill="none" fill-rule="evenodd">
        <g id="Home" transform="translate(-1184.000000, -1695.000000)" fill="#000000" fill-rule="nonzero">
            <g id="Group-4" transform="translate(0.000000, 1260.000000)">
                <g id="Group-2" transform="translate(56.000000, 334.000000)">
                    <g id="jampp" transform="translate(1128.000000, 101.000000)">
                        <g id="logo--white" transform="translate(51.000000, 24.000000)">
                            <path d="M75.9055933,18.8256895 C75.9055933,19.8527337 75.0086037,20.688418 73.9065242,20.688418 L68.9090104,20.688418 L68.9090104,11.3751607 L73.9065242,11.3751607 C75.0086037,11.3751607 75.9055933,12.2108154 75.9055933,13.2377115 L75.9055933,18.8256895 Z M73.8066821,7.65 L65.0107143,7.65 L65.0107143,29.07 L68.9090104,29.07 L68.9090104,24.4135491 L73.8066821,24.4135491 C77.1132384,24.4135491 79.8035714,21.9068812 79.8035714,18.8256895 L79.8035714,13.2377115 C79.8035714,10.1567272 77.1132384,7.65 73.8066821,7.65 L73.8066821,7.65 Z" id="Fill-1"/>
                            <path d="M93.812418,18.8256895 C93.812418,19.8527337 92.9157462,20.688418 91.8133488,20.688418 L86.8158353,20.688418 L86.8158353,11.3751607 L91.8133488,11.3751607 C92.9157462,11.3751607 93.812418,12.2108154 93.812418,13.2377115 L93.812418,18.8256895 Z M91.7135073,7.65 L82.9178572,7.65 L82.9178572,29.07 L86.8158353,29.07 L86.8158353,24.4135491 L91.7135073,24.4135491 C95.0200632,24.4135491 97.710714,21.9068812 97.710714,18.8256895 L97.710714,13.2377115 C97.710714,10.1567272 95.0200632,7.65 91.7135073,7.65 L91.7135073,7.65 Z" id="Fill-2"/>
                            <polygon id="Fill-3" points="6.61785714 3.825 10.5107143 3.825 10.5107143 0 6.61785714 0"/>
                            <path d="M54.8892857,7.65 L36.2035715,7.65 L36.2035715,24.48 L40.3559524,24.48 L40.3559524,11.3900198 L46.5845238,11.3900198 L46.5845238,24.48 L50.7369047,24.48 L50.7369047,11.3900198 L54.8892857,11.3900198 C56.0338819,11.3900198 56.9654762,12.2289812 56.9654762,13.2600595 L56.9654762,24.48 L61.1178572,24.48 L61.1178572,13.2600595 C61.1178572,10.1666461 58.3234045,7.65 54.8892857,7.65" id="Fill-4"/>
                            <path d="M6.56311566,24.6712972 C6.56311566,25.7628798 5.65703288,26.6476572 4.53866895,26.6476572 L0.389285715,26.6476572 L2.41321725,30.6 L4.63999594,30.6 C7.88226606,30.6 10.5107143,28.0341238 10.5107143,24.8685465 L10.5107143,6.885 L6.56311566,6.885 L6.56311566,24.6712972" id="Fill-6"/>
                            <path d="M28.0974503,20.8332913 L20.3024829,20.8332913 C19.371478,20.8332913 18.6171035,20.1634798 18.6171035,19.3375405 C18.6171035,18.511155 19.371478,17.8413733 20.3024829,17.8413733 L28.0974503,17.8413733 L28.0974503,20.8332913 Z M27.0438997,7.65 L15.7728186,7.65 L17.8270077,11.2964708 L25.9905166,11.2964708 C27.1540466,11.2964708 28.0974503,12.1336831 28.0974503,13.1665236 L28.0974503,14.2882996 L20.1443833,14.2882996 C16.9740472,14.2882996 14.4035715,16.5698051 14.4035715,19.3844174 C14.4035715,22.1985837 16.9740472,24.48 20.1443833,24.48 L32.3107143,24.48 L32.3107143,12.3247902 C32.3107143,9.74313504 29.9527582,7.65 27.0438997,7.65 L27.0438997,7.65 Z" id="Fill-8"/>
                        </g>
                    </g>
                </g>
            </g>
        </g>
    </g>
</svg>