<svg xmlns="http://www.w3.org/2000/svg" xmlns:xlink="http://www.w3.org/1999/xlink" width="200px" height="80px" viewBox="0 0 200 80" version="1.1">
    <title>naked</title>
    <g id="Page-1" stroke="none" stroke-width="1" fill="none" fill-rule="evenodd">
        <g id="Home" transform="translate(-1184.000000, -1595.000000)" fill="#000000">
            <g id="Group-4" transform="translate(0.000000, 1260.000000)">
                <g id="Group-2" transform="translate(56.000000, 334.000000)">
                    <g id="naked" transform="translate(1128.000000, 1.000000)">
                        <g transform="translate(40.000000, 26.000000)">
                            <path d="M25.2034351,7.51785069 L24.2884199,7.97736661 C25.0877874,9.53465803 25.5381783,11.2848996 25.5381783,13.1361365 C25.5381783,19.6143034 20.0432573,24.8658031 13.2650274,24.8658031 C6.48679752,24.8658031 0.991876565,19.6143034 0.991876565,13.1361365 C0.991876565,6.65822791 6.48679752,1.40672826 13.2650274,1.40672826 C15.0228735,1.40672826 16.6930305,1.76266582 18.2048391,2.39885901 L18.7030141,1.39097196 C17.0430238,0.665406928 15.203589,0.258325946 13.2650274,0.258325946 C5.93905921,0.258325946 0.000101668365,6.02384283 0.000101668365,13.1361365 C0.000101668365,20.2486885 5.93905921,26.0142054 13.2650274,26.0142054 C20.5912498,26.0142054 26.5302073,20.2486885 26.5302073,13.1361365 C26.5302073,11.1219122 26.0528743,9.21591567 25.2034351,7.51785069" id="Fill-1"/>
                            <path d="M2.91534037,13.1362398 C2.91534037,18.6853012 7.54913027,23.183856 13.2651799,23.183856 C18.9809754,23.183856 23.6147653,18.6853012 23.6147653,13.1362398 C23.6147653,7.58717845 18.9809754,3.08862363 13.2651799,3.08862363 C7.54913027,3.08862363 2.91534037,7.58717845 2.91534037,13.1362398" id="Fill-4"/>
                            <path d="M48.4565915,3.7711042 L46.944783,3.7711042 C46.6552823,3.7711042 46.4445746,4.01209821 46.4445746,4.27943882 L46.4445746,16.9358862 L46.4181408,16.9358862 L35.0429758,3.56446411 C35.0101878,3.52571909 34.9621494,3.50350528 34.9118236,3.50350528 L34.5061668,3.50350528 C34.1358398,3.50350528 33.8326139,3.81139902 33.8326139,4.18800059 L33.8326139,21.8167251 C33.8326139,22.1933268 34.1358398,22.5014788 34.506421,22.5014788 L35.9915417,22.5014788 C36.2812965,22.5014788 36.4920042,22.2607431 36.4920042,21.9928859 L36.4920042,8.96216164 L36.5181838,8.96216164 L47.893603,22.7063108 C47.926391,22.746089 47.9749376,22.7690777 48.0262802,22.7690777 L48.4565915,22.7690777 C48.8271727,22.7690777 49.1303986,22.4609257 49.1303986,22.0843241 L49.1303986,4.45559951 C49.1303986,4.07899794 48.8271727,3.7711042 48.4565915,3.7711042" id="Fill-6"/>
                            <path d="M57.3764147,16.1330636 C57.2508543,16.1330636 57.1669778,16.0018472 57.2180662,15.8853538 L60.3217472,8.80147313 L60.4534077,8.80147313 L63.5825058,15.8848372 C63.6338484,16.0013305 63.549972,16.1330636 63.4241573,16.1330636 L57.3764147,16.1330636 Z M61.0064837,3.79794158 C60.9274365,3.63727891 60.690295,3.50347945 60.5588887,3.50347945 L60.2955676,3.50347945 C60.1636529,3.50347945 59.9270198,3.63727891 59.8479726,3.79794158 L51.7645751,21.8055924 C51.6064808,22.1535227 51.8171885,22.5014529 52.2121701,22.5014529 L53.8708895,22.5014529 C54.1868239,22.5014529 54.3975316,22.2875805 54.4765787,22.1003129 C54.9882248,20.9043833 55.5245254,19.7340255 56.0374423,18.5399041 C56.0648927,18.4758457 56.1269105,18.4342593 56.1955366,18.4342593 L64.5808892,18.4342593 C64.649007,18.4342593 64.7107705,18.4748124 64.7387293,18.5378377 L66.3252641,22.1003129 C66.4304909,22.3407903 66.6147648,22.5014529 66.9306993,22.5014529 L68.5896728,22.5014529 C68.9841461,22.5014529 69.1951079,22.1535227 69.0367595,21.8055924 L61.0064837,3.79794158 Z" id="Fill-8" fill-rule="nonzero"/>
                            <path d="M77.2314076,12.7243286 C77.1696441,12.6551042 77.1716774,12.5489429 77.2362368,12.4823015 L84.7307204,4.73433116 C85.0992682,4.33293278 84.8359471,3.77113003 84.3621725,3.77113003 L82.3870104,3.77113003 C82.1765569,3.77113003 81.9920288,3.90467119 81.886802,4.03872895 L74.7598496,11.5129011 C74.6515728,11.6265532 74.4619614,11.5485465 74.4619614,11.3902086 L74.4619614,4.5894248 C74.4619614,4.13946599 74.0997678,3.77113003 73.6570021,3.77113003 L72.3027794,3.77113003 C71.9342316,3.77113003 71.6709106,4.06559216 71.6709106,4.41326412 L71.6709106,21.8593705 C71.6709106,22.2073008 71.9342316,22.5015046 72.3027794,22.5015046 L73.6567479,22.5015046 C74.0997678,22.5015046 74.4619614,22.1331686 74.4619614,21.6829515 L74.4619614,14.0016227 C74.4619614,13.8394102 74.6594521,13.76347 74.7651872,13.8846128 L82.1239435,22.3142371 C82.1765569,22.3945684 82.3346512,22.5015046 82.5977181,22.5015046 L84.7042866,22.5015046 C85.2571083,22.5015046 85.3887688,21.8859755 85.1783154,21.6183766 L77.2314076,12.7243286 Z" id="Fill-10"/>
                            <path d="M90.9983467,14.2601294 L98.0282053,14.2601294 C98.2915267,14.2601294 98.5286683,14.0459987 98.5286683,13.7517948 L98.5286683,12.3357936 C98.5286683,12.0108521 98.2671263,11.7448029 97.9471252,11.7448029 L90.9983467,11.7448029 L90.9983467,11.744028 L88.8678861,11.744028 C88.5466134,11.744028 88.2863429,12.0085274 88.2863429,12.3347604 L88.2863429,13.6688805 C88.2863429,13.9953719 88.5466134,14.2598712 88.8678861,14.2598712 L90.9983467,14.2598712 L90.9983467,14.2601294 Z" id="Fill-12"/>
                            <path d="M99.3187071,3.7711042 L88.7863733,3.7711042 C88.4971268,3.7711042 88.2864191,4.01209821 88.2864191,4.27943882 L88.2864191,5.69518176 C88.2864191,6.02167311 88.5469443,6.28617243 88.8682161,6.28617243 L90.9984228,6.28617243 L99.3187071,6.28617243 C99.6082084,6.28617243 99.8189161,6.04543672 99.8189161,5.77809609 L99.8189161,4.27943882 C99.8189161,4.01209821 99.6082084,3.7711042 99.3187071,3.7711042" id="Fill-14"/>
                            <path d="M99.3187071,20.0129896 L90.9984228,20.0129896 L90.9984228,20.0135063 L88.8384782,20.0135063 C88.533473,20.0135063 88.2864191,20.2648323 88.2864191,20.5745341 L88.2864191,21.9931183 C88.2864191,22.2607172 88.4971268,22.5014529 88.7863733,22.5014529 L99.3187071,22.5014529 C99.6082084,22.5014529 99.8189161,22.2607172 99.8189161,21.9931183 L99.8189161,20.5213242 C99.8189161,20.2539837 99.6082084,20.0129896 99.3187071,20.0129896" id="Fill-16"/>
                            <path d="M109.95665,19.9594957 L106.654715,19.9594957 C106.558893,19.9594957 106.481117,19.8807141 106.481117,19.783335 L106.481117,6.48940296 C106.481117,6.39202382 106.558893,6.31298398 106.654715,6.31298398 L109.608181,6.31298398 C114.136491,6.31298398 117.574406,10.6537174 116.390987,15.0957045 C115.617545,17.9995144 113.144207,19.9594957 109.95665,19.9594957 M110.325197,3.77105254 L104.442666,3.77105254 C104.085301,3.77105254 103.795801,4.06525637 103.795801,4.42842634 L103.795801,21.8440533 C103.795801,22.2072233 104.085301,22.5014271 104.442666,22.5014271 L110.325197,22.5014271 C115.406837,22.5014271 119.567106,18.300434 119.567106,13.1096349 C119.567106,7.97204563 115.406837,3.77105254 110.325197,3.77105254" id="Fill-18" fill-rule="nonzero"/>
                        </g>
                    </g>
                </g>
            </g>
        </g>
    </g>
</svg>