<svg xmlns="http://www.w3.org/2000/svg" xmlns:xlink="http://www.w3.org/1999/xlink" width="200px" height="80px" viewBox="0 0 200 80" version="1.1">
    <title>Novartis</title>
    <g id="Page-1" stroke="none" stroke-width="1" fill="none" fill-rule="evenodd">
        <g id="Home" transform="translate(-56.000000, -1694.000000)" fill="#000000" fill-rule="nonzero">
            <g id="Group-4" transform="translate(0.000000, 1260.000000)">
                <g id="Group-2" transform="translate(56.000000, 334.000000)">
                    <g id="Novartis" transform="translate(0.000000, 100.000000)">
                        <g transform="translate(25.000000, 28.000000)" id="XMLID_2_">
                            <path d="M21.7851376,16.9440994 C21.7851376,20.5714286 18.0489363,24 10.9299581,24 C2.95266341,24 0.175757023,20.0248447 0.175757023,16.1490683 C0.175757023,11.9254658 3.30608786,9.34161491 3.30608786,5.66459627 C3.30608786,4.57142857 2.95266341,3.52795031 1.94287927,2.48447205 L2.04385768,2.33540373 C4.46733962,2.7826087 6.28495107,5.11801242 6.28495107,7.45341615 C6.28495107,10.8322981 3.6090231,13.3167702 3.6090231,17.0931677 C3.6090231,20.0248447 5.52761297,23.1552795 11.0309365,23.1552795 C15.4739867,23.1552795 18.2508931,19.826087 18.2508931,16.5465839 C18.2508931,13.068323 15.9788788,11.3291925 14.9690947,10.8819876 L15.0195839,10.7329193 C19.5131233,11.1801242 21.7851376,13.8136646 21.7851376,16.9440994 Z M47.0297411,23.4037267 C47.0297411,23.2049689 46.9287627,21.7639752 46.9287627,20.7701863 C46.9287627,19.5279503 46.9287627,10.0372671 46.9287627,10.0372671 L48.4939281,9.59006211 L48.4939281,9.0931677 L44.1013671,9.0931677 L44.1013671,9.59006211 L46.019957,10.0372671 L46.019957,19.4285714 L37.9416839,9.0931677 L34.2054825,9.0931677 L34.2054825,9.59006211 C34.2054825,9.59006211 34.4579286,9.63975155 34.6598854,9.68944099 C35.2657559,9.83850932 35.8716264,10.2857143 36.023094,10.4347826 L36.023094,22.2111801 L34.4579286,22.6583851 L34.4579286,23.1552795 L38.8504896,23.1552795 L38.8504896,22.6583851 L36.9318997,22.2111801 L36.9318997,11.378882 L46.3733814,23.4037267 L47.0297411,23.4037267 Z M58.7432371,8.64596273 C54.9060574,8.64596273 51.3718129,11.5776398 51.3718129,16.1490683 C51.3718129,20.6708075 54.8555682,23.6024845 58.7937264,23.6024845 C62.6813953,23.6024845 66.2156398,20.7204969 66.2156398,15.7515528 C66.1651506,12.2732919 63.4892226,8.64596273 58.7432371,8.64596273 Z M59.0966616,22.9565217 C55.6633955,22.9565217 53.7952949,18.8819876 53.7952949,15.6521739 C53.7952949,12.3726708 55.2594819,9.34161491 58.4403019,9.34161491 C61.4696543,9.34161491 63.6911794,12.8695652 63.6911794,16.5465839 C63.6911794,19.7267081 62.3279708,22.9565217 59.0966616,22.9565217 Z M74.3444021,23.4534161 L75.6066323,23.4534161 L80.7060422,10.0372671 L82.2207184,9.59006211 L82.2207184,9.0931677 L77.9291358,9.0931677 L77.9291358,9.59006211 L79.7467473,10.0372671 L75.7580999,20.7701863 L75.7580999,20.7701863 L71.7694526,10.0372671 L73.587064,9.59006211 L73.587064,9.0931677 L67.7808052,9.0931677 L67.7808052,9.59006211 L69.2954814,10.0372671 L74.3444021,23.4534161 Z M107.414833,12.9689441 C107.414833,10.5341615 105.64771,9.83850932 102.567869,9.83850932 L102.567869,16 L103.476675,16 C105.799178,16 107.414833,14.757764 107.414833,12.9689441 Z M129.428127,23.1552795 L135.739278,23.1552795 L135.739278,22.6583851 L133.71971,22.2111801 L133.71971,10.0372671 L135.739278,9.59006211 L135.739278,9.0931677 L129.428127,9.0931677 L129.428127,9.59006211 L131.447695,10.0372671 L131.447695,22.2111801 L129.428127,22.6583851 L129.428127,23.1552795 Z M139.980371,23.0062112 C140.434774,23.1552795 141.797983,23.6024845 144.069997,23.6024845 C146.998371,23.6024845 149.371364,22.0621118 149.371364,19.5776398 C149.371364,17.5403727 148.260601,16.4968944 145.988587,15.3043478 C145.433206,15.0062112 144.827335,14.7080745 144.322443,14.4596273 C142.858256,13.7142857 142.050429,12.9192547 142.050429,11.6770186 C142.050429,10.2857143 143.161191,9.29192547 144.827335,9.29192547 C145.938098,9.29192547 146.695436,9.68944099 146.897393,9.83850932 L148.159623,12.4720497 L148.614026,12.4720497 L148.260601,9.19254658 C147.957666,9.0931677 146.543968,8.64596273 144.928314,8.64596273 C141.697004,8.64596273 140.182328,10.3354037 140.182328,12.4720497 C140.182328,14.4596273 141.898961,15.7018634 143.565105,16.5465839 C144.069997,16.7950311 144.5244,17.0434783 144.978803,17.2919255 C146.44299,18.0372671 147.301306,18.8322981 147.301306,20.173913 C147.301306,21.9130435 145.736141,22.9565217 143.969019,22.9565217 C142.807767,22.9565217 141.797983,22.5093168 141.394069,22.310559 L140.03086,19.2795031 L139.626947,19.2795031 L139.980371,23.0062112 Z M81.2109343,23.1552795 L85.9064305,23.1552795 L85.9064305,22.6583851 L83.836373,22.2111801 L85.30056,18.3354037 L90.8038836,18.3354037 L92.2680706,22.2111801 L90.1980131,22.6583851 L90.1980131,23.1552795 L96.3072072,23.1552795 L96.3072072,22.6583851 L94.6915525,22.2111801 L89.5416534,8.64596273 L87.8755096,9.04347826 L82.8770781,22.1614907 L81.2614235,22.6086957 L81.2614235,23.1552795 L81.2109343,23.1552795 Z M88.0269772,10.9813665 L88.0269772,10.9813665 L90.3999699,17.242236 L85.6539845,17.242236 L88.0269772,10.9813665 Z M110.343207,22.2111801 L112.261797,22.7080745 L112.261797,23.2049689 L108.475106,23.2049689 L104.234013,16.7453416 L102.567869,16.7453416 L102.567869,22.2608696 L104.486459,22.7080745 L104.486459,23.2049689 L98.6297107,23.2049689 L98.6297107,22.7080745 L100.295855,22.2608696 L100.295855,10.0372671 L98.6297107,9.59006211 L98.6297107,9.0931677 C98.9326459,9.0931677 101.457106,9.04347826 103.981567,9.04347826 C108.071192,9.04347826 109.686847,10.6832298 109.686847,12.8198758 C109.686847,15.5031056 106.859451,16.1987578 106.354559,16.2981366 L110.343207,22.2111801 Z M115.392127,9.83850932 L114.281365,12.173913 L113.826962,12.173913 L114.129897,9.0931677 L125.641436,9.0931677 L125.944372,12.173913 L125.489969,12.173913 L124.379206,9.83850932 L120.996429,9.83850932 L120.996429,22.2111801 L123.015998,22.6583851 L123.015998,23.1552795 L116.704847,23.1552795 L116.704847,22.6583851 L118.724415,22.2111801 L118.724415,9.83850932 L115.392127,9.83850932 Z M10.8289797,18.7826087 L8.85990063,0 L13.0505048,0 L11.0309365,18.7826087 L10.8289797,18.7826087 Z"/>
                        </g>
                    </g>
                </g>
            </g>
        </g>
    </g>
</svg>