<svg xmlns="http://www.w3.org/2000/svg" xmlns:xlink="http://www.w3.org/1999/xlink" width="200px" height="80px" viewBox="0 0 200 80" version="1.1">
    <title>razer</title>
    <g id="Page-1" stroke="none" stroke-width="1" fill="none" fill-rule="evenodd">
        <g id="Home" transform="translate(-432.000000, -1694.000000)" fill="#000000">
            <g id="Group-4" transform="translate(0.000000, 1260.000000)">
                <g id="Group-2" transform="translate(56.000000, 334.000000)">
                    <g id="razer" transform="translate(376.000000, 100.000000)">
                        <g transform="translate(41.000000, 30.000000)" id="Group">
                            <polygon id="Path" points="65.4177601 16.9709613 56.1026883 16.9709613 64.2533761 2.64671449 65.4177601 0.641319943 63.0889922 0.641319943 52.3184404 0.641319943 52.3184404 2.64671449 61.9246082 2.64671449 53.4828244 16.9709613 52.3184404 18.9763558 54.6472083 18.9763558 64.2533761 18.9763558"/>
                            <g transform="translate(77.352696, 0.000000)" id="Path">
                                <polygon points="13.9726077 0.641319943 0.873287981 0.641319943 0.873287981 2.64671449 12.8082237 2.64671449"/>
                                <polygon points="13.9726077 8.66289813 0.873287981 8.66289813 0.873287981 10.6682927 12.8082237 10.6682927"/>
                                <polygon points="13.9726077 16.9709613 0.873287981 16.9709613 0.873287981 18.9763558 12.8082237 18.9763558"/>
                            </g>
                            <path d="M117.232847,6.37101865 L117.232847,5.22507891 C117.232847,2.64671449 115.195175,0.641319943 112.575311,0.641319943 L106.171199,0.641319943 L104.133527,0.641319943 L104.133527,10.6682927 L104.133527,18.6898709 L106.171199,18.6898709 L106.171199,10.6682927 L109.955447,10.6682927 L114.612983,18.6898709 L116.941751,18.6898709 L112.284215,10.6682927 L112.575311,10.6682927 C115.195175,10.6682927 117.232847,8.66289813 117.232847,6.37101865 Z M106.171199,2.64671449 L112.575311,2.64671449 C114.030791,2.64671449 115.195175,3.79265423 115.195175,5.22507891 L115.195175,6.37101865 C115.195175,7.80344333 114.030791,8.94938307 112.575311,8.94938307 L106.171199,8.94938307 L106.171199,2.64671449 Z" id="Shape" fill-rule="nonzero"/>
                            <path d="M13.6026732,6.37101865 L13.6026732,5.22507891 C13.6026732,2.64671449 11.5650013,0.641319943 8.94513731,0.641319943 L2.54102545,0.641319943 L0.503353489,0.641319943 L0.503353489,10.6682927 L0.503353489,18.6898709 L2.54102545,18.6898709 L2.54102545,10.6682927 L6.32527337,10.6682927 L10.9828093,18.6898709 L13.3115772,18.6898709 L8.94513731,10.6682927 L9.2362333,10.6682927 C11.5650013,10.6682927 13.6026732,8.66289813 13.6026732,6.37101865 Z M2.54102545,2.64671449 L8.94513731,2.64671449 C10.4006173,2.64671449 11.5650013,3.79265423 11.5650013,5.22507891 L11.5650013,6.37101865 C11.5650013,7.80344333 10.4006173,8.94938307 8.94513731,8.94938307 L2.54102545,8.94938307 L2.54102545,2.64671449 Z" id="Shape" fill-rule="nonzero"/>
                            <polygon id="Path" points="27.5752809 18.9763558 33.1061048 6.08453372 38.3458327 18.9763558 40.3835046 18.9763558 33.9793928 3.21968436 33.1061048 0.641319943 31.9417208 3.21968436 25.537609 18.9763558"/>
                        </g>
                    </g>
                </g>
            </g>
        </g>
    </g>
</svg>