
<svg xmlns="http://www.w3.org/2000/svg" xmlns:xlink="http://www.w3.org/1999/xlink" width="200px" height="80px" viewBox="0 0 200 80" version="1.1">
    <title>samsung</title>
    <g id="Page-1" stroke="none" stroke-width="1" fill="none" fill-rule="evenodd">
        <g id="Home" transform="translate(-57.000000, -1594.000000)" fill="#000000">
            <g id="Group-4" transform="translate(0.000000, 1260.000000)">
                <g id="Group-2" transform="translate(56.000000, 334.000000)">
                    <g id="samsung" transform="translate(1.000000, 0.000000)">
                        <g transform="translate(27.000000, 29.000000)">
                            <polyline id="Fill-1" points="119.900624 16.6407655 119.617457 0.649046118 124.744406 0.649046118 124.744406 20.811004 117.371865 20.811004 112.261933 4.27004025 112.1503 4.27004025 112.433467 20.811004 107.340553 20.811004 107.340553 0.649046118 115.029614 0.649046118 119.784907 16.6407655 119.900624 16.6407655"/>
                            <polyline id="Fill-2" points="26.7551572 2.53724118 23.9255336 21.0206546 18.3289096 21.0206546 22.1639107 0.649046118 31.3756734 0.649046118 35.1929766 21.0206546 29.6297065 21.0206546 26.8688323 2.53724118 26.7551572 2.53724118"/>
                            <polyline id="Fill-3" points="50.8910237 16.2268228 53.445649 0.649046118 61.8868718 0.649046118 62.3429334 21.0219942 57.1642524 21.0219942 57.0335602 2.70804278 56.9219272 2.71072203 53.4626662 21.0219942 48.2077481 21.0219942 44.7498485 2.70804278 44.6348122 2.70804278 44.5048006 21.0219942 39.3233968 21.0219942 39.7808196 0.649046118 48.2240845 0.649046118 50.7759872 16.2268228 50.8910237 16.2268228"/>
                            <path d="M9.61677254,15.273013 C9.81689507,15.7666631 9.75427169,16.3982941 9.65829455,16.7814256 C9.48812234,17.4599434 9.01844701,18.1485084 7.64073271,18.1485084 C6.34606245,18.1485084 5.55850542,17.4143963 5.55850542,16.303851 L5.55374059,14.33059 L0.00476482217,14.33059 L-2.50111043e-13,15.9006252 C-2.50111043e-13,20.4452876 3.63692069,21.8163892 7.5250156,21.8163892 C11.2715272,21.8163892 14.350283,20.5578158 14.8431018,17.1598684 C15.094276,15.4029562 14.9098093,14.2502128 14.8220004,13.8201946 C13.9479959,9.55082415 6.09080413,8.27952433 5.50813444,5.89433007 C5.40535041,5.48239677 5.43053591,5.05304841 5.48362964,4.82531294 C5.63065844,4.17358758 6.08263586,3.45823024 7.37390267,3.45823024 C8.58825164,3.45823024 9.29616807,4.19167246 9.29616807,5.30489707 L9.29616807,6.5641403 L14.4646388,6.5641403 L14.4646388,5.1300766 C14.4646388,0.694593214 10.4152206,-6.39488462e-14 7.48485495,-6.39488462e-14 C3.80641224,-6.39488462e-14 0.796405993,1.19896032 0.246409376,4.5212191 C0.0959771324,5.42948177 0.0762371549,6.24464083 0.295418975,7.26945049 C1.19188623,11.4329909 8.54809099,12.6359701 9.61677254,15.273013" id="Fill-4"/>
                            <path d="M76.9226086,15.234164 C77.1193276,15.7231254 77.0587464,16.3473887 76.9634499,16.727171 C76.7960005,17.3963114 76.3297286,18.0795179 74.9649474,18.0795179 C73.6832102,18.0795179 72.9038214,17.3534436 72.9038214,16.2536152 L72.8997373,14.2984391 L67.4052166,14.2984391 L67.4011325,15.8544083 C67.4011325,20.3535236 71.0006154,21.7118988 74.8526336,21.7118988 C78.5610268,21.7118988 81.6091515,20.4680611 82.0972054,17.097576 C82.3463376,15.3607582 82.1632322,14.2207411 82.0740621,13.794072 C81.2095872,9.57024866 73.432036,8.31100541 72.8548118,5.94791489 C72.7554313,5.54134008 72.7785747,5.11601059 72.8316683,4.89162415 C72.9786971,4.24190823 73.4225064,3.5339188 74.7008401,3.5339188 C75.9056594,3.5339188 76.6067689,4.26133272 76.6067689,5.36384037 L76.6067689,6.61035722 L81.7235072,6.61035722 L81.7235072,5.19169914 C81.7235072,0.799753422 77.7122077,0.11319793 74.8090696,0.11319793 C71.1694261,0.11319793 68.1893702,1.29809224 67.6454998,4.59020954 C67.4964289,5.48708545 67.4760083,6.2948766 67.6938287,7.3096391 C68.5841698,11.4309815 75.8661795,12.6232437 76.9226086,15.234164" id="Fill-5"/>
                            <path d="M94.2999151,17.9683294 C95.7409335,17.9683294 96.1847426,16.9964348 96.2854845,16.4907279 C96.3310908,16.2757189 96.3385782,15.9776533 96.3344941,15.7164273 L96.3344941,0.645697067 L101.573076,0.645697067 L101.573076,15.2542583 C101.581244,15.6286823 101.540403,16.3929357 101.522705,16.593209 C101.158536,20.3937122 98.1063272,21.6281725 94.2999151,21.6281725 C90.4948642,21.6281725 87.4406132,20.3937122 87.0764447,16.593209 C87.0594274,16.3929357 87.0192668,15.6286823 87.0281158,15.2542583 L87.0281158,0.645697067 L92.2666974,0.645697067 L92.2666974,15.7164273 C92.2626132,15.9776533 92.2701008,16.2757189 92.3157069,16.4907279 C92.4171296,16.9964348 92.8623001,17.9683294 94.2999151,17.9683294" id="Fill-6"/>
                            <path d="M137.479414,17.7593486 C138.978972,17.7593486 139.503102,16.8229539 139.596357,16.279068 C139.636517,16.0473136 139.649451,15.7659933 139.645366,15.5047674 L139.645366,12.5509042 L137.522978,12.5509042 L137.522978,9.58096561 L144.855359,9.58096561 L144.855359,15.0412587 C144.853317,15.42439 144.84651,15.7023614 144.781164,16.3828886 C144.440139,20.0922976 141.17079,21.4151729 137.501877,21.4151729 C133.830922,21.4151729 130.562935,20.0922976 130.220548,16.3828886 C130.156563,15.7023614 130.148395,15.42439 130.145672,15.0412587 L130.148395,6.46969707 C130.148395,6.10665992 130.194001,5.46967039 130.236204,5.12873697 C130.699753,1.31885635 133.830241,0.0951130535 137.501877,0.0951130535 C141.173513,0.0951130535 144.387726,1.30947901 144.768912,5.12873697 C144.834258,5.77711329 144.813837,6.46969707 144.815198,6.46969707 L144.815198,7.14620541 L139.596357,7.14620541 L139.596357,6.00618838 C139.599079,6.00953744 139.591592,5.52459482 139.528969,5.22920851 C139.434353,4.78110546 139.042957,3.75227694 137.460355,3.75227694 C135.952629,3.75227694 135.515627,4.72819046 135.399229,5.22920851 C135.339328,5.49847222 135.315504,5.86284899 135.315504,6.19440506 L135.315504,15.5047674 C135.31142,15.7659933 135.323673,16.0473136 135.363833,16.279068 C135.45913,16.8229539 135.981899,17.7593486 137.479414,17.7593486" id="Fill-7"/>
                        </g>
                    </g>
                </g>
            </g>
        </g>
    </g>
</svg>