<?xml version="1.0" encoding="utf-8"?>
<!DOCTYPE svg PUBLIC "-//W3C//DTD SVG 1.1//EN" "http://www.w3.org/Graphics/SVG/1.1/DTD/svg11.dtd">
<svg version="1.1" id="Layer_1" xmlns="http://www.w3.org/2000/svg" xmlns:xlink="http://www.w3.org/1999/xlink" x="0px" y="0px"
	 width="200px" height="80px" viewBox="0 0 1594.5078 1642.7045" enable-background="new 0 0 1594.5078 1642.7045" xml:space="preserve">
<g>
	<linearGradient id="SVGID_1_" gradientUnits="userSpaceOnUse" x1="903.833" y1="1116.4579" x2="1171.3281" y2="1116.4579">
		<stop  offset="0" style="stop-color:#7F470A"/>
		<stop  offset="0.0491" style="stop-color:#C5992E"/>
		<stop  offset="0.075" style="stop-color:#C39830"/>
		<stop  offset="0.0853" style="stop-color:#BE9337"/>
		<stop  offset="0.0884" style="stop-color:#BB913B"/>
		<stop  offset="0.1139" style="stop-color:#BB913B"/>
		<stop  offset="0.1532" style="stop-color:#E5BD5D"/>
		<stop  offset="0.2043" style="stop-color:#FFFFCD"/>
		<stop  offset="0.2259" style="stop-color:#FFFFCD"/>
		<stop  offset="0.2272" style="stop-color:#FDFCC9"/>
		<stop  offset="0.2502" style="stop-color:#DEC38B"/>
		<stop  offset="0.2713" style="stop-color:#C6965B"/>
		<stop  offset="0.2896" style="stop-color:#B57637"/>
		<stop  offset="0.3046" style="stop-color:#AA6222"/>
		<stop  offset="0.3143" style="stop-color:#A65B1A"/>
		<stop  offset="0.3172" style="stop-color:#A9601D"/>
		<stop  offset="0.3207" style="stop-color:#B36F27"/>
		<stop  offset="0.3244" style="stop-color:#C38737"/>
		<stop  offset="0.3284" style="stop-color:#D9A94D"/>
		<stop  offset="0.3301" style="stop-color:#E4BA58"/>
		<stop  offset="0.3442" style="stop-color:#E0B654"/>
		<stop  offset="0.3598" style="stop-color:#D4A848"/>
		<stop  offset="0.376" style="stop-color:#C19234"/>
		<stop  offset="0.3926" style="stop-color:#A67418"/>
		<stop  offset="0.3949" style="stop-color:#A26F14"/>
		<stop  offset="0.5108" style="stop-color:#A26F14"/>
		<stop  offset="0.5697" style="stop-color:#ECCE76"/>
		<stop  offset="0.5957" style="stop-color:#EDD17B"/>
		<stop  offset="0.626" style="stop-color:#F0D989"/>
		<stop  offset="0.6585" style="stop-color:#F5E6A0"/>
		<stop  offset="0.6922" style="stop-color:#FDF9C1"/>
		<stop  offset="0.7014" style="stop-color:#FFFFCB"/>
		<stop  offset="0.8153" style="stop-color:#FFFFCB"/>
		<stop  offset="0.8393" style="stop-color:#F8F4B8"/>
		<stop  offset="0.8879" style="stop-color:#E8D886"/>
		<stop  offset="0.9562" style="stop-color:#CDAA37"/>
		<stop  offset="1" style="stop-color:#BA8B01"/>
	</linearGradient>
	<path fill="url(#SVGID_1_)" d="M1123.7573,1167.7516c-12.5732-8.2935-23.8768-18.686-33.8816-31.1299
		c-2.8588-3.5554-5.6112-7.2782-8.2571-11.1674c-2.6458-3.8892-5.1847-7.9447-7.6165-12.1654
		c-6.0793-10.5516-11.4872-22.1359-16.2133-34.735l-153.9559-33.2822c15.123,40.3174,37.2298,70.2415,65.9682,89.1979
		c10.8112,7.1432,22.4483,12.6606,34.878,16.5481c4.1433,1.296,8.3747,2.4109,12.693,3.3444l153.9559,33.282
		C1154.0553,1183.91,1138.1722,1177.2762,1123.7573,1167.7516z"/>
	<linearGradient id="SVGID_2_" gradientUnits="userSpaceOnUse" x1="1243.6735" y1="390.8623" x2="927.6448" y2="390.8623">
		<stop  offset="0.0056" style="stop-color:#C2922E"/>
		<stop  offset="0.2528" style="stop-color:#FDF9CE"/>
		<stop  offset="0.3039" style="stop-color:#F7EEBD"/>
		<stop  offset="0.4055" style="stop-color:#E6D190"/>
		<stop  offset="0.5468" style="stop-color:#CCA348"/>
		<stop  offset="0.5955" style="stop-color:#C2922E"/>
		<stop  offset="0.8708" style="stop-color:#EED688"/>
		<stop  offset="1" style="stop-color:#FDF9CE"/>
	</linearGradient>
	<polygon fill="url(#SVGID_2_)" points="1081.6008,427.708 927.6448,394.4258 1089.7174,354.0166 1243.6735,387.2988 	"/>
	<linearGradient id="SVGID_3_" gradientUnits="userSpaceOnUse" x1="917.0361" y1="469.0968" x2="1081.6008" y2="469.0968">
		<stop  offset="0" style="stop-color:#7F470A"/>
		<stop  offset="0.0491" style="stop-color:#C5992E"/>
		<stop  offset="0.075" style="stop-color:#C39830"/>
		<stop  offset="0.0853" style="stop-color:#BE9337"/>
		<stop  offset="0.0884" style="stop-color:#BB913B"/>
		<stop  offset="0.1139" style="stop-color:#BB913B"/>
		<stop  offset="0.1532" style="stop-color:#E5BD5D"/>
		<stop  offset="0.2043" style="stop-color:#FFFFCD"/>
		<stop  offset="0.2259" style="stop-color:#FFFFCD"/>
		<stop  offset="0.2272" style="stop-color:#FDFCC9"/>
		<stop  offset="0.2502" style="stop-color:#DEC38B"/>
		<stop  offset="0.2713" style="stop-color:#C6965B"/>
		<stop  offset="0.2896" style="stop-color:#B57637"/>
		<stop  offset="0.3046" style="stop-color:#AA6222"/>
		<stop  offset="0.3143" style="stop-color:#A65B1A"/>
		<stop  offset="0.3172" style="stop-color:#A9601D"/>
		<stop  offset="0.3207" style="stop-color:#B36F27"/>
		<stop  offset="0.3244" style="stop-color:#C38737"/>
		<stop  offset="0.3284" style="stop-color:#D9A94D"/>
		<stop  offset="0.3301" style="stop-color:#E4BA58"/>
		<stop  offset="0.3442" style="stop-color:#E0B654"/>
		<stop  offset="0.3598" style="stop-color:#D4A848"/>
		<stop  offset="0.376" style="stop-color:#C19234"/>
		<stop  offset="0.3926" style="stop-color:#A67418"/>
		<stop  offset="0.3949" style="stop-color:#A26F14"/>
		<stop  offset="0.5108" style="stop-color:#A26F14"/>
		<stop  offset="0.5697" style="stop-color:#ECCE76"/>
		<stop  offset="0.5957" style="stop-color:#EDD17B"/>
		<stop  offset="0.626" style="stop-color:#F0D989"/>
		<stop  offset="0.6585" style="stop-color:#F5E6A0"/>
		<stop  offset="0.6922" style="stop-color:#FDF9C1"/>
		<stop  offset="0.7014" style="stop-color:#FFFFCB"/>
		<stop  offset="0.8153" style="stop-color:#FFFFCB"/>
		<stop  offset="0.8393" style="stop-color:#F8F4B8"/>
		<stop  offset="0.8879" style="stop-color:#E8D886"/>
		<stop  offset="0.9562" style="stop-color:#CDAA37"/>
		<stop  offset="1" style="stop-color:#BA8B01"/>
	</linearGradient>
	<polygon fill="url(#SVGID_3_)" points="927.645,394.4258 917.0361,510.4856 1070.9922,543.7677 1081.6008,427.708 	"/>
	<linearGradient id="SVGID_4_" gradientUnits="userSpaceOnUse" x1="1323.5189" y1="210.8197" x2="1020.1149" y2="1044.4155">
		<stop  offset="0" style="stop-color:#68451A"/>
		<stop  offset="0.31" style="stop-color:#FCED85"/>
		<stop  offset="0.67" style="stop-color:#B08542"/>
		<stop  offset="1" style="stop-color:#E4CB73"/>
	</linearGradient>
	<path fill="url(#SVGID_4_)" d="M1486.5104,535.1523c-27.994-152.7632-100.3326-265.2584-215.0264-334.3839
		c-18.7068-11.2677-38.0725-21.0955-58.0806-29.4818c-5.7167-2.3961-11.4856-4.6745-17.3066-6.8352
		c-11.6422-4.3214-23.4923-8.1718-35.5479-11.5511c-9.0415-2.5345-18.1984-4.8039-27.4691-6.808l-153.9562-33.2821
		c49.4449,10.689,95.6461,28.9213,138.4044,54.6761c114.6938,69.1255,187.0325,181.6206,215.0266,334.3839
		c16.3282,89.104,16.0829,175.4429-0.7444,256.613c-0.7836,3.7767-1.6129,7.529-2.4653,11.2691
		c-0.1595,0.701-0.317,1.4033-0.4792,2.103c-0.8337,3.5966-1.699,7.1762-2.5962,10.7385c-0.1722,0.6838-0.3495,1.3651-0.524,2.0477
		c-0.9358,3.6578-1.8948,7.303-2.8977,10.9239c-0.0116,0.042-0.0225,0.0845-0.0342,0.1266
		c-1.0104,3.6445-2.0659,7.264-3.1444,10.8708c-0.2047,0.684-0.407,1.3691-0.614,2.0518c-1.0542,3.4773-2.1394,6.9372-3.257,10.3789
		c-0.2114,0.6512-0.428,1.2997-0.6416,1.9497c-1.1516,3.5024-2.3269,6.9914-3.5439,10.4562
		c-0.0281,0.0799-0.0549,0.1606-0.0829,0.2404c-1.2349,3.5096-2.514,6.9935-3.8158,10.4641
		c-0.249,0.6641-0.4965,1.3292-0.7479,1.9918c-1.2723,3.3517-2.5754,6.6857-3.9104,10.0005
		c-0.2509,0.6224-0.5066,1.2418-0.7595,1.8629c-1.3606,3.3416-2.745,6.6691-4.1693,9.9726c-0.0504,0.1169-0.0989,0.235-0.1494,0.352
		c-1.4557,3.3691-2.9546,6.712-4.4766,10.0411c-0.2941,0.6432-0.5864,1.2874-0.8832,1.9291
		c-1.4891,3.223-3.0082,6.4278-4.5597,9.6125c-0.2878,0.5908-0.5808,1.1786-0.8708,1.7681
		c-1.5649,3.1818-3.1538,6.3489-4.7808,9.4919c-0.0773,0.149-0.1517,0.2997-0.229,0.4487
		c-1.6744,3.2266-3.3915,6.4265-5.1315,9.6119c-0.3378,0.6185-0.6742,1.2377-1.0144,1.8547
		c-1.7052,3.0915-3.4395,6.1642-5.2063,9.2161c-0.3221,0.5565-0.6497,1.1097-0.974,1.6649
		c-1.7672,3.0266-3.5587,6.0375-5.387,9.0245c-0.1053,0.1722-0.2078,0.3464-0.3134,0.5186
		c-1.8892,3.0782-3.8203,6.1292-5.7739,9.1651c-0.4174,0.6486-0.8334,1.298-1.2537,1.9448
		c-1.4653,2.2544-2.9457,4.4988-4.4469,6.7295c-0.1531,0.2275-0.3021,0.4575-0.4554,0.6848
		c-1.6481,2.4405-3.3231,4.863-5.0139,7.2747c-0.4813,0.6869-0.9692,1.3698-1.4541,2.0543
		c-1.2819,1.8092-2.5756,3.6102-3.8812,5.403c-0.5095,0.6991-1.0172,1.3994-1.5299,2.096
		c-1.7527,2.3801-3.5192,4.7507-5.3146,7.1014c-1.9874,2.633-4.024,5.2238-6.0823,7.795c-0.4908,0.6133-0.9828,1.2257-1.4778,1.8354
		c-2.057,2.5341-4.1383,5.0464-6.2628,7.5179c-0.1846,0.2147-0.3744,0.424-0.5596,0.6382
		c-1.9873,2.3006-4.0094,4.5675-6.0542,6.8121c-0.5173,0.5678-1.0336,1.1367-1.5547,1.7009
		c-2.1942,2.3768-4.4142,4.7275-6.6716,7.0391c-0.3239,0.3315-0.6547,0.6556-0.9797,0.9858
		c-2.0328,2.0648-4.0934,4.1001-6.1759,6.111c-0.5259,0.5081-1.0497,1.0188-1.579,1.5234c-2.3651,2.255-4.7567,4.4803-7.183,6.665
		c-0.3918,0.3527-0.7916,0.6956-1.1849,1.0464c-2.0876,1.8621-4.1991,3.6957-6.3304,5.5051
		c-0.6705,0.5693-1.3418,1.1381-2.0167,1.7021c-2.511,2.0981-5.0405,4.1733-7.6094,6.1971
		c-1.3979,1.1013-2.7844,2.176-4.1599,3.2255c-0.4885,0.3728-0.9679,0.7251-1.4537,1.0912
		c-0.8792,0.6631-1.7611,1.3319-2.631,1.9735c-0.5826,0.4298-1.1553,0.8369-1.7339,1.257
		c-0.7653,0.5559-1.5345,1.1206-2.2925,1.6595c-0.583,0.4147-1.1561,0.8069-1.7349,1.2115
		c-0.7408,0.5182-1.4857,1.0448-2.2191,1.5465c-0.5925,0.4052-1.175,0.788-1.7627,1.1825
		c-0.7068,0.4746-1.4177,0.9576-2.1176,1.4165c-0.5947,0.39-1.1794,0.7579-1.769,1.1366c-0.6823,0.4382-1.3683,0.8846-2.0437,1.3077
		c-0.5889,0.3689-1.1677,0.7162-1.7512,1.0736c-0.6636,0.4063-1.3306,0.8203-1.9871,1.2118
		c-0.5802,0.3458-1.1506,0.6707-1.7255,1.0048c-0.6478,0.3767-1.299,0.7605-1.9398,1.1223
		c-0.6558,0.3702-1.3007,0.7175-1.9493,1.0721c-0.5674,0.3104-1.1395,0.6306-1.7012,0.9291c-0.6532,0.3469-1.295,0.67-1.9406,1.0009
		c-0.5438,0.2784-1.0924,0.5679-1.6307,0.8351c-0.6493,0.3223-1.2867,0.6199-1.9282,0.9255
		c-0.5232,0.2494-1.052,0.5104-1.5699,0.7485c-0.6377,0.2933-1.2634,0.5613-1.8931,0.8379
		c-0.5085,0.2233-1.0229,0.4589-1.5264,0.6713c-0.6343,0.2677-1.256,0.5088-1.8818,0.7589
		c-0.4851,0.1938-0.9763,0.4008-1.4564,0.5841c-0.6594,0.2521-1.3055,0.4761-1.9553,0.7081c-0.4325,0.1544-0.8718,0.3229-1.3,0.4685
		c-0.7349,0.25-1.4553,0.4703-2.1775,0.6943c-0.3314,0.1027-0.6699,0.22-0.9985,0.3173c-1.0458,0.3094-2.0781,0.5918-3.0963,0.8456
		c-0.949,0.2367-1.8859,0.4438-2.8157,0.6339c-0.2936,0.0599-0.5833,0.1101-0.875,0.1655
		c-0.6449,0.1223-1.2866,0.2365-1.9225,0.3362c-0.3138,0.0492-0.6265,0.0948-0.9382,0.1384
		c-0.6271,0.0879-1.2491,0.1627-1.8674,0.2281c-0.2819,0.0299-0.5652,0.0634-0.8452,0.0885
		c-0.8215,0.0737-1.6367,0.1301-2.443,0.1636c-0.0591,0.0024-0.1199,0.0087-0.1788,0.0109
		c-0.8625,0.0327-1.7141,0.0367-2.5592,0.0232c-0.2572-0.0042-0.511-0.0176-0.7667-0.026
		c-0.5947-0.0195-1.1859-0.0486-1.7722-0.0914c-0.2882-0.0211-0.5754-0.0454-0.8618-0.0721
		c-0.577-0.0538-1.1492-0.1211-1.7179-0.1979c-0.2524-0.0341-0.5067-0.0637-0.7577-0.1024
		c-0.8058-0.1239-1.6056-0.2645-2.395-0.4352l153.9561,33.2821c0.7893,0.1707,1.5892,0.3113,2.395,0.4353
		c0.251,0.0386,0.505,0.0684,0.7576,0.1024c0.5688,0.0768,1.141,0.144,1.718,0.1979c0.2863,0.0267,0.5736,0.0509,0.8621,0.072
		c0.5859,0.043,1.1772,0.0718,1.772,0.0914c0.2555,0.0084,0.5094,0.0219,0.7666,0.026c0.8452,0.0135,1.6968,0.0095,2.5593-0.0232
		c0.0592-0.0022,0.1195-0.0083,0.1788-0.0107c0.8063-0.0334,1.6213-0.0898,2.443-0.1636c0.28-0.0251,0.5634-0.0588,0.8455-0.0885
		c0.618-0.0654,1.2401-0.1404,1.8669-0.2281c0.3123-0.0437,0.6249-0.0894,0.939-0.1387c0.2212-0.0345,0.4385-0.0599,0.6606-0.0974
		c0.4161-0.0701,0.8397-0.1586,1.2596-0.2383c0.2922-0.0555,0.5825-0.1058,0.8768-0.1659c0.9298-0.1901,1.8667-0.3972,2.8154-0.6338
		c1.0183-0.2539,2.0508-0.5363,3.0966-0.8457c0.3285-0.0973,0.667-0.2145,0.9984-0.3173c0.7223-0.2239,1.4427-0.4443,2.1777-0.6942
		c0.428-0.1456,0.8674-0.3142,1.2996-0.4685c0.65-0.2322,1.296-0.4562,1.9558-0.7083c0.4797-0.1832,0.9712-0.3901,1.4561-0.584
		c0.626-0.2502,1.2477-0.4913,1.8822-0.759c0.5033-0.2124,1.0175-0.448,1.5261-0.6713c0.6298-0.2766,1.2551-0.5444,1.8931-0.8378
		c0.5179-0.2384,1.0468-0.4993,1.5699-0.7487c0.6416-0.3055,1.2789-0.6031,1.9282-0.9255c0.5383-0.2671,1.0872-0.5565,1.6306-0.8351
		c0.6456-0.3309,1.2875-0.6538,1.9406-1.0009c0.5619-0.2983,1.1339-0.6185,1.7014-0.929c0.6483-0.3547,1.2935-0.702,1.9493-1.0721
		c0.0775-0.0439,0.1531-0.0831,0.231-0.1272c0.5674-0.3214,1.1462-0.6681,1.719-1.0011c0.5704-0.3317,1.1365-0.6541,1.7123-0.9971
		c0.6661-0.3973,1.3431-0.8173,2.0164-1.2297c0.5739-0.3516,1.1429-0.6927,1.7218-1.0554c0.687-0.4303,1.3848-0.8843,2.0789-1.3303
		c0.578-0.3712,1.1509-0.7318,1.7338-1.1139c0.7145-0.4686,1.4402-0.9614,2.162-1.4463c0.573-0.3848,1.1407-0.7577,1.7181-1.1526
		c0.7527-0.5146,1.5166-1.0547,2.2769-1.5867c0.5594-0.3915,1.1135-0.7704,1.6772-1.1713c0.7845-0.5579,1.5804-1.1418,2.3729-1.7178
		c0.5518-0.401,1.0977-0.7889,1.6534-1.1987c0.9191-0.6779,1.8505-1.3834,2.7803-2.0853c0.4359-0.3291,0.866-0.6447,1.3042-0.9791
		c1.3766-1.0503,2.7642-2.1259,4.1633-3.228c2.5687-2.0237,5.0979-4.0985,7.6089-6.1967c0.6755-0.5648,1.3475-1.1342,2.019-1.7042
		c2.129-1.8071,4.2378-3.6388,6.3232-5.4988c0.3956-0.353,0.798-0.698,1.1921-1.0529c2.0393-1.8363,4.0612-3.6931,6.0575-5.5792
		c0.3768-0.356,0.7441-0.7223,1.1193-1.08c0.5331-0.5082,1.0603-1.0225,1.5903-1.5342c2.0779-2.0067,4.1339-4.0375,6.1624-6.0979
		c0.3281-0.3331,0.6616-0.6598,0.9882-0.9943c2.2562-2.3102,4.4747-4.6594,6.6676-7.0348c0.5228-0.5662,1.0406-1.1364,1.5594-1.7062
		c2.0437-2.2433,4.0646-4.509,6.0508-6.8082c0.1854-0.2145,0.3756-0.4242,0.5604-0.6392c2.1245-2.4715,4.2058-4.9837,6.2628-7.5178
		c0.4949-0.6098,0.9868-1.222,1.4778-1.8354c2.0585-2.5712,4.0947-5.162,6.0824-7.795c1.7953-2.3508,3.5618-4.7213,5.3143-7.1014
		c0.5127-0.6964,1.0203-1.3963,1.5293-2.0952c1.3073-1.7946,2.6022-3.5975,3.8853-5.4086c0.4833-0.6819,0.9691-1.3621,1.4486-2.0464
		c1.6921-2.4136,3.3683-4.8378,5.0176-7.2801c0.1505-0.223,0.2966-0.4487,0.4469-0.6718c1.5038-2.2345,2.9865-4.4827,4.4545-6.741
		c0.2004-0.3086,0.4088-0.612,0.6088-0.921c0.2184-0.3376,0.4254-0.6828,0.6432-1.021c1.954-3.0366,3.8855-6.0882,5.775-9.1672
		c0.1056-0.1718,0.2078-0.3458,0.3129-0.5177c1.829-2.9879,3.6208-5.9997,5.3888-9.027c0.324-0.5545,0.6506-1.1068,0.9725-1.6626
		c1.7673-3.0527,3.5022-6.1263,5.2078-9.2186c0.3395-0.6157,0.6753-1.2338,1.0123-1.8511c1.7404-3.1859,3.4576-6.3862,5.1322-9.6135
		c0.0771-0.1487,0.1517-0.2991,0.2288-0.4479c1.6274-3.1439,3.2167-6.3118,4.782-9.4944c0.2898-0.5888,0.5823-1.1757,0.8699-1.7658
		c1.5516-3.1851,3.0709-6.3902,4.5603-9.6136c0.296-0.6409,0.5881-1.2844,0.882-1.9268c1.5225-3.3302,3.0219-6.6742,4.4781-10.0445
		c0.0494-0.1143,0.0968-0.2299,0.146-0.3443c1.4257-3.3066,2.8113-6.6372,4.1733-9.9819c0.2522-0.6193,0.5071-1.2369,0.7572-1.8576
		c1.3357-3.3162,2.639-6.6514,3.9121-10.0046c0.251-0.6609,0.4974-1.3243,0.746-1.9868c1.3024-3.472,2.5822-6.9573,3.8174-10.4684
		c0.0273-0.0776,0.0532-0.1561,0.0806-0.2339c1.2178-3.4664,2.3934-6.9572,3.5457-10.4612c0.2137-0.65,0.4302-1.2985,0.6417-1.9497
		c1.1178-3.4423,2.2032-6.9028,3.2576-10.3807c0.2067-0.6813,0.4086-1.3651,0.6127-2.0477
		c1.0786-3.6075,2.1345-7.2277,3.1453-10.873c0.0116-0.0421,0.0225-0.0845,0.0341-0.1265c1.0029-3.6213,1.9622-7.2668,2.8979-10.925
		c0.1746-0.6823,0.3513-1.3629,0.5236-2.0464c0.8975-3.5623,1.7629-7.1421,2.5963-10.7388
		c0.1621-0.6998,0.3196-1.4019,0.4794-2.1029c0.8523-3.7401,1.682-7.4924,2.4653-11.2691
		C1502.5935,710.5953,1502.8389,624.2563,1486.5104,535.1523z"/>
	<path fill="none" d="M745.0834,1520.4236l-153.9561-33.2822c21.7143,4.6942,44.0031,8.2039,66.8154,10.5127
		c77.6158,7.8073,159.1499,1.2512,242.3088-19.4827c85.8477-21.4042,167.3559-56.8787,242.2971-105.4264
		c74.9491-48.5608,146.6859-112.8522,213.1892-191.0902l153.9559,33.2821c-66.5032,78.238-138.24,142.5295-213.1891,191.0903
		c-74.9412,48.5477-156.4493,84.0221-242.2971,105.4264c-83.1588,20.7338-164.6929,27.2899-242.3087,19.4827
		C789.0865,1528.6273,766.7977,1525.1178,745.0834,1520.4236z"/>
	<linearGradient id="SVGID_5_" gradientUnits="userSpaceOnUse" x1="591.1274" y1="1352.975" x2="1518.038" y2="1352.975">
		<stop  offset="0" style="stop-color:#E4CB73"/>
		<stop  offset="0.33" style="stop-color:#B08542"/>
		<stop  offset="0.69" style="stop-color:#FCED85"/>
		<stop  offset="1" style="stop-color:#68451A"/>
	</linearGradient>
	<path fill="url(#SVGID_5_)" d="M1364.0818,1171.8271l-8.3441,9.8276c-27.1522,31.9434-55.1769,61.562-83.9366,88.7344
		c-41.6802,39.3798-84.9041,73.6216-129.2526,102.3558c-13.6086,8.8158-27.4341,17.2008-41.4628,25.1486
		c-63.224,35.819-130.5758,62.7604-200.8342,80.2777c-20.1515,5.0244-40.2075,9.2162-60.1357,12.5729
		c-62.3087,10.495-123.3655,12.8253-182.1731,6.91c-22.8122-2.3091-45.101-5.8186-66.8153-10.5128l153.9561,33.2823
		c21.7143,4.694,44.0031,8.2037,66.8154,10.5125c58.8074,5.9154,119.8643,3.5852,182.173-6.9099
		c19.928-3.3564,39.9843-7.5483,60.1357-12.5726c70.2584-17.5173,137.6101-44.4589,200.8344-80.2778
		c14.0286-7.9479,27.8539-16.3326,41.4629-25.1487c44.3483-28.734,87.5721-62.9758,129.2523-102.3558
		c28.7595-27.1722,56.7843-56.7908,83.9366-88.7344l8.3442-9.8274L1364.0818,1171.8271z"/>
	<linearGradient id="SVGID_6_" gradientUnits="userSpaceOnUse" x1="974.1031" y1="541.345" x2="737.1738" y2="1192.3031">
		<stop  offset="0" style="stop-color:#68451A"/>
		<stop  offset="0.31" style="stop-color:#FCED85"/>
		<stop  offset="0.67" style="stop-color:#B08542"/>
		<stop  offset="1" style="stop-color:#E4CB73"/>
	</linearGradient>
	<path fill="url(#SVGID_6_)" d="M1030.3103,649.9994c-8.0045-43.6813-23.5577-76.4533-46.2606-97.4332
		c-11.7889-10.8903-24.3618-17.7742-37.938-20.709l-153.9561-33.2822c13.5764,2.935,26.1491,9.8189,37.9379,20.7092
		c22.7031,20.9799,38.256,53.7518,46.2607,97.4332c9.0414,49.338,10.7149,108.4367,4.9752,175.6411
		c-5.7838,67.4691-18.4537,132.2078-37.6058,192.3163c-0.8486,2.5994-1.704,5.1613-2.5627,7.7049
		c-0.1699,0.5032-0.3397,1.0079-0.5101,1.509c-0.8331,2.4512-1.6708,4.8779-2.5133,7.2767
		c-0.1558,0.4429-0.3122,0.8812-0.468,1.3223c-0.8192,2.318-1.6422,4.6152-2.4702,6.8835
		c-0.0735,0.2011-0.1463,0.4058-0.2198,0.6065c-0.87,2.3763-1.746,4.7179-2.6256,7.0392c-0.183,0.4832-0.3661,0.9663-0.5495,1.4471
		c-0.8695,2.2782-1.7428,4.5336-2.6215,6.7582c-0.1362,0.3448-0.2733,0.6844-0.4097,1.0281
		c-0.8279,2.0848-1.6599,4.1464-2.4958,6.1835c-0.1267,0.3087-0.2525,0.6217-0.3796,0.9293
		c-0.8909,2.1604-1.7871,4.2886-2.6871,6.3947c-0.1933,0.4524-0.3868,0.9028-0.5805,1.3527
		c-0.907,2.1064-1.8177,4.1923-2.7336,6.2435c-0.0998,0.2234-0.2003,0.442-0.3,0.6647c-0.8668,1.933-1.7379,3.8386-2.6124,5.722
		c-0.1618,0.3484-0.323,0.7001-0.4852,1.0466c-0.9173,1.9628-1.8394,3.8958-2.7653,5.804c-0.1923,0.3964-0.3851,0.7893-0.578,1.1833
		c-0.9517,1.9462-1.9068,3.8729-2.8676,5.7614c-0.03,0.0587-0.06,0.1158-0.09,0.1746c-0.9429,1.851-1.891,3.666-2.8423,5.4611
		c-0.1874,0.3539-0.3749,0.7097-0.5627,1.0614c-0.9453,1.7701-1.895,3.5131-2.8488,5.2279
		c-0.183,0.3292-0.3668,0.6539-0.5502,0.9811c-0.9392,1.6757-1.8815,3.3301-2.8285,4.952
		c-0.0629,0.1078-0.1254,0.2189-0.1885,0.3264c-0.9851,1.6824-1.9756,3.3273-2.9688,4.9514
		c-0.204,0.3337-0.4081,0.6677-0.6126,0.9989c-0.9763,1.5824-1.9564,3.1398-2.9408,4.6658
		c-0.1868,0.2893-0.3742,0.5725-0.561,0.8597c-0.7272,1.1176-1.4564,2.2194-2.1876,3.3062
		c-0.2271,0.3373-0.4538,0.6764-0.6812,1.0107c-0.8878,1.3054-1.7782,2.5928-2.6722,3.8527
		c-0.1337,0.1885-0.2682,0.371-0.4019,0.5583c-0.7819,1.0947-1.5663,2.1704-2.3527,3.2305
		c-0.2422,0.3267-0.4846,0.6526-0.7274,0.976c-0.9099,1.212-1.8218,2.4095-2.738,3.5751c-1.3907,1.7705-2.7992,3.4991-4.2239,5.1891
		c-0.4766,0.5653-0.9657,1.1007-1.446,1.657c-0.9562,1.1073-1.91,2.2203-2.8811,3.2917c-0.5807,0.6407-1.1747,1.2494-1.761,1.8773
		c-0.8857,0.9491-1.7678,1.9077-2.6657,2.8275c-0.6352,0.6505-1.2834,1.269-1.9247,1.9049
		c-0.8652,0.8583-1.7266,1.7263-2.6028,2.5576c-1.3217,1.254-2.6561,2.4766-4.0024,3.6694
		c-0.3384,0.2997-0.6812,0.5894-1.0212,0.8854c-1.0699,0.9314-2.1472,1.8442-3.2322,2.7372
		c-0.4128,0.3397-0.8256,0.6794-1.2405,1.0135c-1.2748,1.0264-2.5583,2.0309-3.8536,3.0046
		c-0.1372,0.1031-0.272,0.212-0.4096,0.3147c-1.4266,1.0647-2.8687,2.0891-4.32,3.0897c-0.4059,0.2798-0.8148,0.5511-1.2224,0.826
		c-1.1156,0.7521-2.2382,1.4854-3.3682,2.1997c-0.4111,0.2599-0.8207,0.5236-1.2337,0.7787c-1.4819,0.915-2.9728,1.806-4.4786,2.657
		c-0.1763,0.0995-0.3555,0.1912-0.5322,0.2899c-1.351,0.7552-2.7125,1.4824-4.0825,2.186c-0.475,0.244-0.9529,0.4803-1.4301,0.718
		c-1.1434,0.5698-2.2933,1.121-3.4497,1.6548c-0.4578,0.2115-0.9143,0.4274-1.3743,0.6333
		c-1.5746,0.7047-3.1577,1.3856-4.7557,2.0244c-0.1033,0.0413-0.2084,0.0776-0.3118,0.1187
		c-1.4999,0.595-3.0123,1.1553-4.5326,1.6924c-0.4914,0.1735-0.9856,0.3386-1.4792,0.506c-1.1981,0.4067-2.4027,0.7952-3.6133,1.166
		c-0.4917,0.1505-0.9824,0.3046-1.4763,0.4492c-1.653,0.4843-3.3137,0.9465-4.9896,1.3643
		c-1.3231,0.3298-2.6357,0.6162-3.9431,0.8802c-0.3969,0.0798-0.791,0.1497-1.1864,0.2235
		c-0.9212,0.1726-1.8384,0.328-2.7516,0.4672c-0.4625,0.0706-0.9249,0.14-1.3856,0.202c-0.9313,0.1254-1.8577,0.2289-2.7812,0.3195
		c-0.3787,0.0372-0.7593,0.0834-1.137,0.1146c-1.2855,0.1067-2.5646,0.1848-3.8348,0.2235
		c-0.1801,0.0055-0.3574,0.0001-0.5369,0.0043c-1.0921,0.025-2.1792,0.0259-3.2606,0.0004
		c-0.4172-0.0099-0.8317-0.0325-1.2472-0.0499c-0.8541-0.0356-1.7054-0.0847-2.5529-0.1521
		c-0.4434-0.0354-0.886-0.0742-1.3276-0.1184c-0.86-0.0856-1.7158-0.1918-2.569-0.3108c-0.3873-0.0541-0.7761-0.1008-1.1619-0.1616
		c-1.2184-0.192-2.4315-0.4093-3.6363-0.6694c-0.0045-0.001-0.0093-0.0017-0.0137-0.0027l0.0026,0.0006
		c-0.0009-0.0001-0.0019-0.0002-0.0026-0.0005l153.9559,33.2822c1.2098,0.2616,2.4283,0.4794,3.6518,0.6722
		c0.3843,0.0604,0.772,0.1069,1.1577,0.1608c0.8542,0.1191,1.7112,0.2256,2.5723,0.3115c0.4406,0.0439,0.8824,0.0825,1.3249,0.1179
		c0.8494,0.0679,1.7029,0.1171,2.559,0.1528c0.4135,0.0171,0.826,0.0397,1.241,0.0496c1.0854,0.0255,2.1767,0.0249,3.2732-0.0004
		c0.1755-0.004,0.3488,0.001,0.5246-0.0043c1.2708-0.0386,2.5506-0.1169,3.8365-0.2236c0.3779-0.0314,0.7592-0.0775,1.1385-0.1146
		c0.9229-0.0907,1.8485-0.1941,2.7792-0.3193c0.461-0.0621,0.9237-0.1315,1.3866-0.202c0.4009-0.0613,0.7983-0.1074,1.2009-0.175
		c0.5134-0.0861,1.0323-0.1953,1.5483-0.2917c0.3961-0.0742,0.7914-0.1439,1.1889-0.2242c1.3071-0.2635,2.6197-0.5502,3.9427-0.8799
		c1.6766-0.418,3.338-0.8804,4.9919-1.365c0.4919-0.1442,0.9804-0.2976,1.4701-0.4474c1.2115-0.3712,2.4167-0.7599,3.6159-1.1669
		c0.4946-0.1677,0.9902-0.333,1.4825-0.507c1.5157-0.5354,3.0234-1.0944,4.519-1.6874c0.1079-0.0428,0.2173-0.0808,0.325-0.1238
		c1.5974-0.6387,3.1798-1.3192,4.7535-2.0234c0.4606-0.2062,0.9172-0.4221,1.3755-0.6338c1.155-0.5333,2.3036-1.0839,3.4458-1.6528
		c0.4791-0.2386,0.9584-0.4758,1.4353-0.7209c1.369-0.703,2.7294-1.4297,4.0795-2.1844c0.177-0.0989,0.3566-0.1907,0.533-0.2904
		c0.0388-0.022,0.0786-0.0417,0.1173-0.0637c1.4664-0.8307,2.9177-1.7017,4.3615-2.5933c0.4128-0.2549,0.8226-0.5184,1.2335-0.7784
		c1.1298-0.7145,2.2526-1.4476,3.3682-2.1997c0.4077-0.2748,0.8167-0.5461,1.2224-0.826c1.4512-1.0007,2.8934-2.0251,4.3202-3.0897
		c0.1368-0.1024,0.2715-0.2111,0.4084-0.314c1.2961-0.9746,2.5806-1.9796,3.8563-3.0068c0.414-0.3333,0.8258-0.6722,1.2376-1.0112
		c1.0862-0.8939,2.1647-1.8077,3.2358-2.7402c0.3388-0.2948,0.68-0.5834,1.0173-0.8821c1.2643-1.1199,2.5206-2.2599,3.7632-3.434
		c0.0816-0.0773,0.1606-0.1605,0.2421-0.2379c0.8718-0.8271,1.7288-1.6908,2.5898-2.5448c0.6456-0.6399,1.298-1.2627,1.9375-1.9176
		c0.8924-0.9139,1.7686-1.8667,2.6489-2.8097c0.5917-0.6338,1.1914-1.248,1.7776-1.895c0.9683-1.0681,1.919-2.1779,2.8722-3.2816
		c0.483-0.5593,0.9747-1.0977,1.4539-1.6661c1.4247-1.6899,2.8333-3.4185,4.2239-5.1891c0.9163-1.1658,1.8286-2.3635,2.7388-3.5759
		c0.2421-0.3224,0.4836-0.6475,0.7252-0.9731c0.7859-1.0591,1.5693-2.1339,2.3505-3.2275c0.1356-0.1898,0.2716-0.3745,0.4069-0.5654
		c0.8934-1.2589,1.7831-2.5452,2.6705-3.8496c0.2279-0.3352,0.4551-0.6753,0.6827-1.0134c0.7305-1.0858,1.4594-2.1869,2.186-3.3035
		c0.1335-0.2052,0.2683-0.4008,0.4015-0.6069c0.0536-0.0828,0.1064-0.1707,0.1598-0.2537c0.9849-1.5266,1.9655-3.0847,2.9425-4.6678
		c0.2036-0.33,0.4069-0.6627,0.6102-0.9951c0.9935-1.6248,1.9843-3.27,2.9694-4.953c0.0632-0.1078,0.1258-0.2189,0.1888-0.3269
		c0.9464-1.6204,1.8876-3.2733,2.826-4.9474c0.1846-0.3296,0.3698-0.6565,0.5544-0.9882c0.9531-1.7136,1.9018-3.4554,2.8467-5.2244
		c0.1881-0.3524,0.3759-0.7092,0.5638-1.0638c0.9524-1.7971,1.9016-3.6143,2.8456-5.4674c0.0281-0.0552,0.0566-0.1089,0.0846-0.1642
		c0.9605-1.8878,1.9153-3.814,2.867-5.7596c0.1938-0.3964,0.3879-0.7917,0.5814-1.1904c0.9254-1.907,1.847-3.8392,2.7638-5.8007
		c0.162-0.3467,0.3233-0.6985,0.485-1.0469c0.8755-1.8854,1.7477-3.7928,2.6151-5.7279c0.0988-0.2198,0.1979-0.4357,0.2964-0.6563
		c0.9166-2.0526,1.8279-4.1398,2.7355-6.2477c0.1932-0.4484,0.386-0.8973,0.5789-1.3483c0.9006-2.1077,1.7975-4.2379,2.6893-6.4
		c0.1259-0.3054,0.251-0.616,0.3768-0.9225c0.8356-2.0364,1.6673-4.0974,2.4949-6.1816c0.1377-0.3466,0.2761-0.6892,0.4133-1.0371
		c0.8782-2.2235,1.751-4.4778,2.6202-6.755c0.1836-0.4811,0.3668-0.9644,0.5499-1.4479c0.8792-2.3203,1.7548-4.6606,2.6244-7.0359
		c0.0748-0.2045,0.149-0.413,0.2237-0.6178c0.827-2.2654,1.6489-4.5596,2.4671-6.8745c0.1559-0.4414,0.3124-0.8798,0.468-1.3229
		c0.8428-2.3988,1.6804-4.8253,2.5137-7.2767c0.1702-0.5011,0.3398-1.0057,0.5097-1.509c0.8589-2.5436,1.7144-5.1055,2.5629-7.7048
		c19.1521-60.1086,31.822-124.8472,37.6058-192.3163C1041.0254,758.4361,1039.3514,699.3375,1030.3103,649.9994z"/>
	<path fill="none" d="M746.1553,1287.5919l-153.9561-33.2822c-30.9921-6.6998-59.5828-20.7062-85.5716-41.979
		c-53.1186-43.4689-88.5306-111.6584-105.2149-202.7042c-11.8996-64.9363-10.2563-132.6312,4.8883-201.1761
		c15.0651-68.3044,43.074-134.8811,83.251-197.8922c29.8972-46.8299,65.0899-86.0632,104.618-116.5887
		c39.6702-30.6492,82.4807-51.8622,127.2464-63.0236c32.4294-8.0855,62.2903-9.194,89.2614-3.3634l153.9561,33.2822
		c-26.971-5.8306-56.832-4.7221-89.2614,3.3634c-44.7657,11.1613-87.5762,32.3744-127.2464,63.0236
		c-39.5281,30.5255-74.7208,69.7588-104.618,116.5886c-40.1771,63.0111-68.1859,129.5877-83.251,197.8922
		c-15.1447,68.5449-16.788,136.2398-4.8883,201.176c16.6842,91.0459,52.0963,159.2354,105.2148,202.7043
		C686.5725,1266.8857,715.1633,1280.892,746.1553,1287.5919z"/>
	<linearGradient id="SVGID_7_" gradientUnits="userSpaceOnUse" x1="474.3122" y1="1197.0374" x2="915.6647" y2="432.5923">
		<stop  offset="0" style="stop-color:#E4BA5E"/>
		<stop  offset="0.0302" style="stop-color:#E0B55A"/>
		<stop  offset="0.0663" style="stop-color:#D6A64C"/>
		<stop  offset="0.1055" style="stop-color:#C58E37"/>
		<stop  offset="0.1466" style="stop-color:#AD6D19"/>
		<stop  offset="0.1731" style="stop-color:#9B5302"/>
		<stop  offset="0.1881" style="stop-color:#9B5302"/>
		<stop  offset="0.2209" style="stop-color:#B37624"/>
		<stop  offset="0.2613" style="stop-color:#CC9B47"/>
		<stop  offset="0.2989" style="stop-color:#DEB660"/>
		<stop  offset="0.3324" style="stop-color:#E9C670"/>
		<stop  offset="0.3582" style="stop-color:#EDCC75"/>
		<stop  offset="0.3806" style="stop-color:#D7A036"/>
		<stop  offset="0.394" style="stop-color:#D7A036"/>
		<stop  offset="0.4224" style="stop-color:#FDF6DC"/>
		<stop  offset="0.5239" style="stop-color:#F6E284"/>
		<stop  offset="0.5866" style="stop-color:#F5C764"/>
		<stop  offset="0.591" style="stop-color:#F3C161"/>
		<stop  offset="0.5971" style="stop-color:#EEAF58"/>
		<stop  offset="0.6042" style="stop-color:#E6924A"/>
		<stop  offset="0.6119" style="stop-color:#DB6A35"/>
		<stop  offset="0.6202" style="stop-color:#CC371C"/>
		<stop  offset="0.628" style="stop-color:#BD0000"/>
		<stop  offset="0.707" style="stop-color:#FFB33D"/>
		<stop  offset="0.7124" style="stop-color:#FCC455"/>
		<stop  offset="0.7191" style="stop-color:#F9D46C"/>
		<stop  offset="0.7264" style="stop-color:#F8DF7D"/>
		<stop  offset="0.7345" style="stop-color:#F6E687"/>
		<stop  offset="0.7448" style="stop-color:#F6E88A"/>
		<stop  offset="0.8254" style="stop-color:#F5F1AC"/>
		<stop  offset="0.8582" style="stop-color:#F6F4D6"/>
		<stop  offset="0.8791" style="stop-color:#F3F4FF"/>
		<stop  offset="0.906" style="stop-color:#D59712"/>
		<stop  offset="0.9522" style="stop-color:#FCEEA5"/>
		<stop  offset="1" style="stop-color:#F9CA5D"/>
	</linearGradient>
	<path fill="url(#SVGID_7_)" d="M810.6778,427.5826c-21.5403-4.6566-44.9241-4.8871-69.9875-0.6723
		c-6.3189,1.0627-12.7443,2.4078-19.2739,4.0358c-28.4372,7.0901-56.0854,18.2365-82.6407,33.2814
		c-15.2482,8.6387-30.1357,18.5627-44.6056,29.7422c-10.5522,8.1488-20.7953,16.9182-30.7113,26.287
		c-26.4633,25.0032-50.5963,54.2756-72.0513,87.4155c-0.6208,0.9588-1.2391,1.9208-1.8554,2.8861
		c-40.177,63.011-68.1859,129.5876-83.2509,197.8922c-15.1446,68.5449-16.788,136.2397-4.8884,201.176
		c16.6843,91.0458,52.0963,159.2354,105.2149,202.7043c25.9886,21.2728,54.5794,35.2792,85.5716,41.9791l153.9561,33.282
		c-30.992-6.6998-59.5828-20.7059-85.5716-41.979c-53.1185-43.4689-88.5308-111.6583-105.2149-202.7041
		c-11.8995-64.9363-10.2563-132.6312,4.8882-201.1762c15.0651-68.3044,43.074-134.881,83.251-197.8922
		c0.6163-0.9653,1.2349-1.9272,1.8555-2.886c21.4551-33.1399,45.588-62.4123,72.0515-87.4156
		c9.9159-9.3688,20.1591-18.1382,30.711-26.287c14.47-11.1794,29.3578-21.1034,44.6056-29.7421
		c26.5555-15.0448,54.2037-26.1913,82.6409-33.2815c6.5297-1.628,12.9551-2.9732,19.2739-4.0358
		c25.0632-4.2148,48.447-3.9842,69.9877,0.6724L810.6778,427.5826z"/>
	<linearGradient id="SVGID_8_" gradientUnits="userSpaceOnUse" x1="174.6818" y1="837.9933" x2="1573.782" y2="837.9933">
		<stop  offset="0" style="stop-color:#B3892E"/>
		<stop  offset="0.0055" style="stop-color:#B58D33"/>
		<stop  offset="0.0924" style="stop-color:#DAC682"/>
		<stop  offset="0.1543" style="stop-color:#F1E9B4"/>
		<stop  offset="0.1847" style="stop-color:#FAF7C7"/>
		<stop  offset="0.1994" style="stop-color:#F3E6AD"/>
		<stop  offset="0.2212" style="stop-color:#EAD18C"/>
		<stop  offset="0.2422" style="stop-color:#E4C275"/>
		<stop  offset="0.2618" style="stop-color:#E0B967"/>
		<stop  offset="0.2786" style="stop-color:#DFB662"/>
		<stop  offset="0.2806" style="stop-color:#E2BC6B"/>
		<stop  offset="0.2895" style="stop-color:#ECD58D"/>
		<stop  offset="0.298" style="stop-color:#F4E7A5"/>
		<stop  offset="0.3058" style="stop-color:#F8F2B4"/>
		<stop  offset="0.3122" style="stop-color:#FAF6B9"/>
		<stop  offset="0.3126" style="stop-color:#FAF5B8"/>
		<stop  offset="0.325" style="stop-color:#F9E397"/>
		<stop  offset="0.3368" style="stop-color:#F8D580"/>
		<stop  offset="0.3479" style="stop-color:#F7CD72"/>
		<stop  offset="0.3574" style="stop-color:#F7CA6D"/>
		<stop  offset="0.3928" style="stop-color:#ECCA76"/>
		<stop  offset="0.4303" style="stop-color:#E7CA7A"/>
		<stop  offset="0.4892" style="stop-color:#9B6F2A"/>
		<stop  offset="0.6051" style="stop-color:#9B6F2A"/>
		<stop  offset="0.6055" style="stop-color:#9C702B"/>
		<stop  offset="0.6226" style="stop-color:#B98E43"/>
		<stop  offset="0.6393" style="stop-color:#CEA454"/>
		<stop  offset="0.6554" style="stop-color:#DBB25E"/>
		<stop  offset="0.6699" style="stop-color:#DFB662"/>
		<stop  offset="0.6834" style="stop-color:#D7A051"/>
		<stop  offset="0.7025" style="stop-color:#CE883E"/>
		<stop  offset="0.7201" style="stop-color:#C97933"/>
		<stop  offset="0.7346" style="stop-color:#C7742F"/>
		<stop  offset="0.7394" style="stop-color:#CA7B37"/>
		<stop  offset="0.7468" style="stop-color:#D18D4C"/>
		<stop  offset="0.756" style="stop-color:#DCAB6F"/>
		<stop  offset="0.7663" style="stop-color:#ECD4A0"/>
		<stop  offset="0.7741" style="stop-color:#FAF7C9"/>
		<stop  offset="0.7957" style="stop-color:#FAF7C9"/>
		<stop  offset="0.8468" style="stop-color:#E0B967"/>
		<stop  offset="0.8861" style="stop-color:#B38D46"/>
		<stop  offset="0.9116" style="stop-color:#B38D46"/>
		<stop  offset="0.9133" style="stop-color:#B58E45"/>
		<stop  offset="0.9241" style="stop-color:#BC943F"/>
		<stop  offset="0.9509" style="stop-color:#BE953E"/>
		<stop  offset="1" style="stop-color:#78481D"/>
	</linearGradient>
	<path fill="url(#SVGID_8_)" d="M1201.6195,961.8669l-0.589,4.9916c-1.7197,33.7238-1.078,59.0895,1.9061,75.3737
		c4.4733,24.4104,12.8501,42.0208,24.8743,52.3319c11.4176,9.8113,24.8618,12.5841,41.1233,8.5297
		c16.1531-4.0273,35.7814-15.0571,58.3268-32.8177c23.0764-18.1798,43.8459-39.3933,61.7222-63.0746
		c47.4707-62.1589,80.022-134.6356,96.783-215.436c16.8273-81.1701,17.0728-167.509,0.7444-256.613
		c-27.994-152.7633-100.3328-265.2584-215.0265-334.3839c-115.183-69.3787-255.35-84.1694-416.605-43.964
		c-89.2261,22.2466-171.7791,61.855-245.3524,117.6985c-73.6009,55.8614-135.5923,125.4481-184.2573,206.8312
		c-50.2246,84.6191-83.5262,176.6065-98.9534,273.3411c-15.4456,96.9157-13.1884,201.1266,6.7159,309.7443
		c17.3882,94.8873,48.5559,176.6166,92.6425,242.9081c43.9689,66.1553,102.5834,119.7754,174.2146,159.3348
		c63.3248,34.8104,134.6581,56.4448,212.01,64.2738c77.6158,7.8073,159.1499,1.2511,242.3087-19.4827
		c85.8478-21.4043,167.356-56.8787,242.2971-105.4264c74.9491-48.5608,146.6859-112.8523,213.1891-191.0903l8.3441-9.8275
		l55.7441,49.5352l-8.7428,10.7987c-67.1996,82.9253-143.3943,152.5659-226.4658,206.9923
		c-83.1603,54.4485-173.9214,94.1722-269.7761,118.0715c-99.9128,24.911-195.9759,34.8027-285.5372,29.422
		c-89.8544-5.4622-171.6193-25.9634-243.0096-60.948c-92.7541-44.6666-170.1856-109.6962-230.0864-193.2666
		c-59.8283-83.4561-100.7017-183.303-121.4917-296.7542c-21.3045-116.2583-18.2664-232.7149,9.0386-346.1285
		c27.2693-113.3274,78.3149-221.0063,151.7197-320.0349c60.402-81.407,131.9605-150.1566,212.695-204.3535
		c80.7325-54.2074,171.1002-93.9985,268.5801-118.303c92.7424-23.1233,180.0032-30.5775,259.3608-22.1451
		c79.702,8.4569,153.6354,33.1511,219.7355,73.3834c66.2198,40.3238,120.7994,93.9014,162.2163,159.2253
		c41.2953,65.1666,70.5837,143.7225,87.0416,233.5336c16.7191,91.2358,16.5365,181.852-0.5455,269.3318
		c-17.1217,87.6001-50.2017,168.3198-98.3564,239.8973c-27.9752,39.8948-59.0477,72.8918-92.5186,98.3094
		c-33.7075,25.5869-69.2234,43.1603-105.5778,52.2245c-54.8516,13.676-101.3917,8.2405-138.3044-16.149
		c-28.7384-18.9564-50.8453-48.8804-65.9684-89.1978c-20.9784,52.7285-45.9846,95.3923-74.5552,127.1477
		c-35.3385,39.2806-79.0278,65.6458-129.8312,78.3125c-74.2156,18.504-139.0799,5.5862-192.8187-38.4012
		c-53.1185-43.469-88.5306-111.6584-105.2148-202.7043c-11.8997-64.9362-10.2563-132.6311,4.8883-201.176
		c15.0651-68.3044,43.0739-134.881,83.251-197.8922c29.8972-46.8298,65.0899-86.0632,104.618-116.5886
		c39.6702-30.6492,82.4807-51.8622,127.2464-63.0236c50.3109-12.5439,94.4399-8.2951,131.1868,12.6043
		c25.5523,14.5529,47.1088,36.9774,64.4327,66.9352l10.6088-116.0598l162.0726-40.4092L1201.6195,961.8669z M1035.2855,825.6405
		c5.7397-67.2043,4.066-126.303-4.9752-175.6411c-8.0046-43.6813-23.5577-76.4533-46.2606-97.4332
		c-21.9945-20.3178-46.7172-26.6904-75.5957-19.4902c-31.0258,7.7356-56.5964,26.0739-78.1976,56.0694
		c-22.2022,30.8186-42.0116,78.1792-58.8886,140.7554c-18.7414,66.9587-30.8105,131.5475-35.9185,192.1384
		c-5.099,60.2466-3.4744,113.8506,4.8513,159.2838c8.024,43.7869,23.4089,76.8215,45.7148,98.2205
		c21.47,20.603,44.8765,27.3811,71.5587,20.7285c29.7551-7.4188,55.9681-25.3434,77.9149-53.2842
		c22.7847-28.9885,43.7072-72.4109,62.1906-129.0309C1016.8318,957.8483,1029.5017,893.1096,1035.2855,825.6405"/>
	<path fill="none" d="M675.4437,1605.3353l-153.9561-33.2821c-48.2975-10.441-93.5135-25.9293-135.1932-46.3542
		c-92.7541-44.6666-170.1856-109.6963-230.0863-193.2667c-59.8283-83.4561-100.7017-183.303-121.4917-296.754
		c-21.3045-116.2584-18.2664-232.715,9.0386-346.1285c27.2693-113.3274,78.3149-221.0063,151.7197-320.035
		c60.402-81.407,131.9605-150.1566,212.695-204.3534c80.7326-54.2074,171.1003-93.9986,268.5802-118.303
		C769.4921,23.735,856.753,16.2808,936.1107,24.7132c20.0322,2.1256,39.7001,5.2768,58.9708,9.4428l153.9561,33.2822
		c-19.2706-4.1659-38.9385-7.3172-58.9708-9.4428c-79.3576-8.4324-166.6185-0.9782-259.3608,22.1451
		c-97.4799,24.3045-187.8476,64.0956-268.5801,118.303c-80.7345,54.1968-152.293,122.9464-212.695,204.3535
		c-73.4048,99.0286-124.4504,206.7076-151.7197,320.0349c-27.305,113.4136-30.3431,229.8702-9.0386,346.1285
		c20.79,113.4512,61.6635,213.2981,121.4917,296.7542c59.9007,83.5704,137.3323,148.6,230.0864,193.2666
		C581.9301,1579.4061,627.1462,1594.8944,675.4437,1605.3353z"/>
	<linearGradient id="SVGID_9_" gradientUnits="userSpaceOnUse" x1="186.4983" y1="1412.3755" x2="1009.5081" y2="-13.1193">
		<stop  offset="0" style="stop-color:#7F470A"/>
		<stop  offset="0.0491" style="stop-color:#C5992E"/>
		<stop  offset="0.075" style="stop-color:#C39830"/>
		<stop  offset="0.0853" style="stop-color:#BE9337"/>
		<stop  offset="0.0884" style="stop-color:#BB913B"/>
		<stop  offset="0.1139" style="stop-color:#BB913B"/>
		<stop  offset="0.1532" style="stop-color:#E5BD5D"/>
		<stop  offset="0.2043" style="stop-color:#FFFFCD"/>
		<stop  offset="0.2259" style="stop-color:#FFFFCD"/>
		<stop  offset="0.2272" style="stop-color:#FDFCC9"/>
		<stop  offset="0.2502" style="stop-color:#DEC38B"/>
		<stop  offset="0.2713" style="stop-color:#C6965B"/>
		<stop  offset="0.2896" style="stop-color:#B57637"/>
		<stop  offset="0.3046" style="stop-color:#AA6222"/>
		<stop  offset="0.3143" style="stop-color:#A65B1A"/>
		<stop  offset="0.3172" style="stop-color:#A9601D"/>
		<stop  offset="0.3207" style="stop-color:#B36F27"/>
		<stop  offset="0.3244" style="stop-color:#C38737"/>
		<stop  offset="0.3284" style="stop-color:#D9A94D"/>
		<stop  offset="0.3301" style="stop-color:#E4BA58"/>
		<stop  offset="0.3442" style="stop-color:#E0B654"/>
		<stop  offset="0.3598" style="stop-color:#D4A848"/>
		<stop  offset="0.376" style="stop-color:#C19234"/>
		<stop  offset="0.3926" style="stop-color:#A67418"/>
		<stop  offset="0.3949" style="stop-color:#A26F14"/>
		<stop  offset="0.5108" style="stop-color:#A26F14"/>
		<stop  offset="0.5697" style="stop-color:#ECCE76"/>
		<stop  offset="0.5957" style="stop-color:#EDD17B"/>
		<stop  offset="0.626" style="stop-color:#F0D989"/>
		<stop  offset="0.6585" style="stop-color:#F5E6A0"/>
		<stop  offset="0.6922" style="stop-color:#FDF9C1"/>
		<stop  offset="0.7014" style="stop-color:#FFFFCB"/>
		<stop  offset="0.8153" style="stop-color:#FFFFCB"/>
		<stop  offset="0.8393" style="stop-color:#F8F4B8"/>
		<stop  offset="0.8879" style="stop-color:#E8D886"/>
		<stop  offset="0.9562" style="stop-color:#CDAA37"/>
		<stop  offset="1" style="stop-color:#BA8B01"/>
	</linearGradient>
	<path fill="url(#SVGID_9_)" d="M995.0814,34.1559c-19.2706-4.1658-38.9384-7.3172-58.9707-9.4427
		c-59.1439-6.2846-122.6775-3.7449-189.5984,7.5287c-22.8717,3.8531-46.1392,8.7264-69.7623,14.6163
		c-76.6688,19.1156-148.9377,47.8112-215.5798,85.5659c-18.0895,10.2483-35.7646,21.1641-53.0005,32.737
		c-38.3929,25.773-74.7107,54.8372-108.7404,86.9884c-37.5297,35.4579-72.2764,74.6708-103.9545,117.365
		c-12.2766,16.5621-23.9277,33.3661-34.9469,50.3981c-54.8671,84.8062-94.0641,175.263-116.7728,269.637
		c-27.305,113.4135-30.3431,229.8702-9.0386,346.1285c20.79,113.451,61.6634,213.2979,121.4917,296.7542
		c59.9007,83.5703,137.3322,148.5999,230.0864,193.2666c41.6796,20.4249,86.8957,35.9132,135.1931,46.3542l153.9561,33.2821
		c-48.2976-10.4409-93.5135-25.9292-135.1933-46.3542c-92.754-44.6666-170.1856-109.6963-230.0863-193.2666
		c-59.8284-83.4561-100.7017-183.3031-121.4917-296.7542c-21.3045-116.2584-18.2665-232.7149,9.0386-346.1285
		c22.7087-94.374,61.9056-184.8307,116.7728-269.637c11.0191-17.0319,22.6704-33.836,34.9469-50.398
		c31.6781-42.6943,66.4249-81.9071,103.9546-117.3651c34.0297-32.1512,70.3476-61.2153,108.7405-86.9883
		c17.2358-11.5729,34.9108-22.4888,53.0004-32.7371c66.642-37.7547,138.9113-66.4503,215.5797-85.566
		c23.6232-5.8899,46.8907-10.7632,69.7627-14.6163c66.9208-11.2737,130.4544-13.8133,189.5982-7.5288
		c20.0322,2.1255,39.7002,5.2769,58.9709,9.4428L995.0814,34.1559z"/>
</g>
</svg>
