<svg xmlns="http://www.w3.org/2000/svg" xmlns:xlink="http://www.w3.org/1999/xlink" width="200px" height="80px" viewBox="0 0 200 80" version="1.1">
    <title>silence</title>
    <g id="Page-1" stroke="none" stroke-width="1" fill="none" fill-rule="evenodd">
        <g id="Home" transform="translate(-809.000000, -1694.000000)" fill="#000000" fill-rule="nonzero">
            <g id="Group-4" transform="translate(0.000000, 1260.000000)">
                <g id="Group-2" transform="translate(56.000000, 334.000000)">
                    <g id="silence" transform="translate(753.000000, 100.000000)">
                        <g transform="translate(37.000000, 20.000000)">
                            <path d="M81.978127,29.2376746 C77.581913,29.2376746 74.0048308,25.5024568 74.0048308,20.9111964 C74.0048308,18.7046264 74.8266535,16.6300962 76.3186746,15.0713186 C77.840303,13.4815248 79.8840938,12.6042139 82.0714344,12.6042139 L87.8807172,12.6051001 C88.8021273,12.6051001 89.5485868,13.3423957 89.5485868,14.2533812 C89.5485868,15.1617082 88.8021273,15.8990038 87.8807172,15.8990038 L82.0561822,15.8981176 C80.8108875,15.8981176 79.6283959,16.4076669 78.7428724,17.3328312 C77.8376116,18.2792636 77.3396729,19.5491489 77.3396729,20.9111964 C77.3396729,23.6858029 79.4202481,25.9428846 81.978127,25.9428846 L87.8663621,25.9428846 C87.8708479,25.9419985 87.8744365,25.9419985 87.8789229,25.9419985 C88.7931558,25.9419985 89.5396147,26.6713186 89.5467925,27.5761008 C89.5548668,28.4844278 88.8164823,29.2279266 87.8959693,29.2359022 L81.978127,29.2376746 Z M22.707296,27.6549702 L22.707296,14.3154133 C22.707296,13.4062002 21.9608368,12.6689045 21.0394263,12.6689045 C20.1189129,12.6689045 19.3724538,13.4062002 19.3724538,14.3154133 L19.3724538,27.6549702 C19.3724538,28.5632972 20.1189129,29.301479 21.0394263,29.301479 C21.9608368,29.301479 22.707296,28.5632972 22.707296,27.6549702 Z M56.3616584,27.7267502 C56.3661443,28.6324186 57.1117063,29.3643972 58.0295281,29.3643972 L58.0358084,29.3643972 C58.9563217,29.3599664 59.6991922,28.6200122 59.6965006,27.7099129 L59.6965006,20.0037555 C59.6965006,17.7874378 61.7088902,15.9840764 64.1824331,15.9840764 C65.3990177,15.9840764 66.5330613,16.4165286 67.3764169,17.2052223 C68.1982395,17.9717616 68.6504216,18.9961772 68.6504216,20.0781941 C68.6504216,20.1375676 68.6495245,25.4891642 68.6495245,27.7170023 C68.6495245,28.6279878 69.3959839,29.3652834 70.3173941,29.3652834 C71.2388048,29.3652834 71.9852644,28.6279878 71.9852644,27.7170023 L71.9852644,20.0914866 C71.9861609,18.0816471 71.1625439,16.2073919 69.6669341,14.8107838 C68.2018287,13.4434194 66.2540368,12.6892865 64.1824331,12.6892865 C59.8696579,12.6892865 56.3607612,15.9707838 56.3607612,20.0037555 L56.3616584,27.7267502 Z M32.3789664,26.0536562 C31.1910914,26.0536562 29.6577997,24.9450542 29.6577997,23.7673308 L29.6577997,14.3375676 C29.6577997,13.4265821 28.9113405,12.6892865 27.9908272,12.6892865 C27.0694167,12.6892865 26.3229576,13.4265821 26.3229576,14.3375676 L26.3238547,23.850631 C26.3776859,27.0036333 29.5447542,29.3484461 32.3789664,29.3484461 L37.1457181,29.3475599 C38.0644371,29.3404706 38.8037188,28.5987441 38.7983649,27.6913033 C38.7929525,26.7847486 38.0464934,26.0536562 37.1295688,26.0536562 L32.3789664,26.0536562 Z M11.1003943,22.6099893 C12.0523092,22.6099893 12.7978712,23.3410818 12.7978712,24.271563 C12.7978712,25.1940688 12.0585895,25.9428846 11.1506368,25.9428846 L1.96165277,25.9428846 C1.04113943,25.9428846 0.294680271,26.6810665 0.294680271,27.5911658 C0.294680271,28.5012651 1.04113943,29.2376746 1.96165277,29.2376746 L11.1506368,29.2376746 C13.8978218,29.2376746 16.1327134,27.0098365 16.1327134,24.271563 C16.1327134,21.5394928 13.8753922,19.3169717 11.0905253,19.3169717 L5.13141264,19.3178579 C4.22256272,19.3178579 3.48417824,18.5663835 3.48417824,17.6456501 C3.48417824,17.1981329 3.65733524,16.7807456 3.97224769,16.4705852 C4.2907489,16.1559939 4.71960404,15.9840764 5.15832824,15.9840764 L14.4119097,15.9849626 C15.332423,15.9849626 16.0788822,15.2476669 16.0788822,14.3375676 C16.0788822,13.4265821 15.332423,12.6901726 14.4119097,12.6901726 L5.18075789,12.6892865 C3.82869786,12.6892865 2.56187053,13.2050389 1.6144416,14.1417235 C0.669704222,15.0748632 0.149336059,16.3199358 0.149336059,17.6456501 C0.149336059,20.3839236 2.38422761,22.6108755 5.13141264,22.6108755 L11.1003943,22.6099893 Z M39.4030394,24.1669946 C39.4452071,27.1268113 41.7437989,29.3484461 44.7834668,29.3484461 L52.3673841,29.3475599 C53.2870003,29.3404706 54.0253848,28.5987441 54.0208988,27.6921895 C54.0155157,26.7847486 53.2690566,26.0536562 52.352132,26.0536562 L44.7834668,26.0536562 C43.7651601,26.0536562 42.7378815,25.4466279 42.7378815,24.0863529 L42.7378815,22.6525256 L51.1355471,22.6525256 C52.0560604,22.6525256 52.8025196,21.9152299 52.8025196,21.006903 C52.8025196,20.0968036 52.0560604,19.359508 51.1355471,19.359508 L42.7378815,19.359508 L42.7378815,18.2695156 C42.7378815,17.0093782 43.6557033,15.9849626 44.7834668,15.9849626 L52.3548235,15.9849626 C53.2690566,15.9849626 54.0146185,15.2556425 54.0218478,14.349974 C54.0289735,13.4407609 53.2878975,12.6981482 52.3673841,12.6901726 L44.7834668,12.6892865 C41.816471,12.6892865 39.4030394,15.1927242 39.4030394,18.2854668 L39.4030394,24.1669946 Z M91.5771254,24.1669946 C91.6183962,27.1268113 93.917885,29.3484461 96.9575526,29.3484461 L104.54147,29.3475599 C105.460189,29.3404706 106.199471,28.5987441 106.194088,27.6921895 C106.188705,26.7847486 105.443142,26.0536562 104.526218,26.0536562 L96.9575526,26.0536562 C95.9392458,26.0536562 94.9110703,25.4466279 94.9110703,24.0863529 L94.9110703,22.6525256 L103.309633,22.6525256 C104.230146,22.6525256 104.976605,21.9152299 104.976605,21.006903 C104.976605,20.0968036 104.230146,19.359508 103.309633,19.359508 L94.9110703,19.359508 L94.9110703,18.2695156 C94.9110703,17.0093782 95.8288919,15.9840764 96.9575526,15.9840764 L104.528012,15.9849626 C105.443142,15.9849626 106.187807,15.2556425 106.19505,14.349974 C106.203059,13.4407609 105.461983,12.6981482 104.54147,12.6901726 L96.9575526,12.6892865 C93.9905567,12.6892865 91.5762282,15.1927242 91.5762282,18.2854668 L91.5771254,24.1669946 Z" id="Fill-1"/>
                            <path d="M115.879691,3.31094834 C113.08081,3.31094834 110.801373,5.55339154 110.801373,8.30882353 C110.801373,11.0651415 113.08081,13.3075847 115.879691,13.3075847 C118.680373,13.3075847 120.958909,11.0651415 120.958909,8.30882353 C120.958909,5.55339154 118.680373,3.31094834 115.879691,3.31094834 M115.879691,16.6176471 C111.224492,16.6176471 107.437134,12.8911689 107.437134,8.30882353 C107.437134,3.72736411 111.224492,0 115.879691,0 C120.53489,0 124.322247,3.72736411 124.322247,8.30882353 C124.322247,12.8911689 120.53489,16.6176471 115.879691,16.6176471" id="Fill-4"/>
                            <path d="M102.310017,39.7676176 L103.429712,39.7676176 L103.429712,37.7726176 L105.384693,34.7637941 L104.112475,34.7637941 L102.877042,36.7711471 L101.663141,34.7637941 L100.355036,34.7637941 L102.310017,37.7946765 L102.310017,39.7676176 Z M95.9354683,39.7676176 L97.0551641,39.7676176 L97.0551641,35.7785 L98.60282,35.7785 L98.60282,34.7637941 L94.3869152,34.7637941 L94.3869152,35.7785 L95.9354683,35.7785 L95.9354683,39.7676176 Z M90.9416982,39.7676176 L92.061394,39.7676176 L92.061394,34.7637941 L90.9416982,34.7637941 L90.9416982,39.7676176 Z M84.9744754,39.7676176 L88.6305321,39.7676176 L88.6305321,38.7670294 L86.0941706,38.7670294 L86.0941706,34.7637941 L84.9744754,34.7637941 L84.9744754,39.7676176 Z M81.1658957,39.7676176 L82.2855914,39.7676176 L82.2855914,34.7637941 L81.1658957,34.7637941 L81.1658957,39.7676176 Z M75.5396057,38.8014412 L75.5396057,37.7020294 L76.8333562,37.7020294 C77.4075588,37.7020294 77.6623614,37.9093824 77.6623614,38.2437941 L77.6623614,38.2596765 C77.6623614,38.6311471 77.3644937,38.8014412 76.8701412,38.8014412 L75.5396057,38.8014412 Z M75.5396057,36.7870294 L75.5396057,35.7290882 L76.6449458,35.7290882 C77.1168689,35.7290882 77.3788487,35.9143824 77.3788487,36.2435 L77.3788487,36.2567353 C77.3788487,36.6282059 77.0657288,36.7870294 76.5722735,36.7870294 L75.5396057,36.7870294 Z M74.4495171,39.7676176 L76.8701412,39.7676176 C78.0185465,39.7676176 78.7739822,39.3096765 78.7739822,38.3937941 L78.7739822,38.3805588 C78.7739822,37.7090882 78.4106194,37.3729118 77.8220617,37.1514412 C78.1854246,36.9511471 78.4904695,36.6370294 78.4904695,36.0714412 L78.4904695,36.0573235 C78.4904695,35.7132059 78.3747321,35.4352647 78.1423589,35.2067353 C77.8507718,34.9208529 77.3932038,34.7637941 76.8118233,34.7637941 L74.4495171,34.7637941 L74.4495171,39.7676176 Z M69.3391125,38.8376176 C68.4383315,38.8376176 67.7986337,38.1237941 67.7986337,37.2652647 L67.7986337,37.2502647 C67.7986337,36.3935 68.4239764,35.6929118 69.3247575,35.6929118 C70.226435,35.6929118 70.8661328,36.4067353 70.8661328,37.2652647 L70.8661328,37.2802647 C70.8661328,38.1370294 70.2407901,38.8376176 69.3391125,38.8376176 Z M69.3247575,39.8532059 C70.8948428,39.8532059 72.0360715,38.6876176 72.0360715,37.2652647 L72.0360715,37.2502647 C72.0360715,35.8287941 70.9091985,34.6773235 69.3391125,34.6773235 C67.7690265,34.6773235 66.6286956,35.8429118 66.6286956,37.2652647 L66.6286956,37.2802647 C66.6286956,38.7026176 67.7546715,39.8532059 69.3247575,39.8532059 Z M59.1272744,39.7676176 L60.2245399,39.7676176 L60.2245399,36.5214412 L61.6421034,38.6382059 L61.6708135,38.6382059 L63.1027314,36.5011471 L63.1027314,39.7676176 L64.2152494,39.7676176 L64.2152494,34.7637941 L63.0085262,34.7637941 L61.6708135,36.8796765 L60.3331001,34.7637941 L59.1272744,34.7637941 L59.1272744,39.7676176 Z M54.0168695,38.8376176 C53.1160889,38.8376176 52.476391,38.1237941 52.476391,37.2652647 L52.476391,37.2502647 C52.476391,36.3935 53.1008366,35.6929118 54.0025145,35.6929118 C54.9041923,35.6929118 55.5438901,36.4067353 55.5438901,37.2652647 L55.5438901,37.2802647 C55.5438901,38.1370294 54.9185474,38.8376176 54.0168695,38.8376176 Z M54.0025145,39.8532059 C55.5726002,39.8532059 56.7138283,38.6876176 56.7138283,37.2652647 L56.7138283,37.2502647 C56.7138283,35.8287941 55.5869553,34.6773235 54.0168695,34.6773235 C52.4467837,34.6773235 51.3055557,35.8429118 51.3055557,37.2652647 L51.3055557,37.2802647 C51.3055557,38.7026176 52.4324286,39.8532059 54.0025145,39.8532059 Z M47.2789585,39.8532059 C48.2604864,39.8532059 48.8418668,39.5099706 49.3649296,38.9602647 L48.6525592,38.2517353 C48.2533089,38.6099706 47.8971237,38.8376176 47.3157433,38.8376176 C46.4427756,38.8376176 45.8398627,38.1237941 45.8398627,37.2652647 L45.8398627,37.2502647 C45.8398627,36.3935 46.4580279,35.6929118 47.3157433,35.6929118 C47.8244511,35.6929118 48.2237015,35.9073235 48.6166716,36.2567353 L49.329042,35.4493824 C48.8562218,34.9923235 48.282019,34.6773235 47.3229209,34.6773235 C45.7600126,34.6773235 44.6699245,35.8429118 44.6699245,37.2652647 L44.6699245,37.2802647 C44.6699245,38.7167353 45.7815452,39.8532059 47.2789585,39.8532059 Z M38.607599,39.7676176 L42.4816735,39.7676176 L42.4816735,38.7882059 L39.7192197,38.7882059 L39.7192197,37.7373235 L42.1183108,37.7373235 L42.1183108,36.7579118 L39.7192197,36.7579118 L39.7192197,35.7423235 L42.4448887,35.7423235 L42.4448887,34.7637941 L38.607599,34.7637941 L38.607599,39.7676176 Z M27.8493712,39.7676176 L28.9547115,39.7676176 L28.9547115,36.5867353 L31.4184004,39.7676176 L32.3703211,39.7676176 L32.3703211,34.7637941 L31.2658778,34.7637941 L31.2658778,37.8440882 L28.882039,34.7637941 L27.8493712,34.7637941 L27.8493712,39.7676176 Z M22.260763,37.6729118 L22.9363485,36.0502647 L23.6128311,37.6729118 L22.260763,37.6729118 Z M20.2546419,39.7676176 L21.39587,39.7676176 L21.8606154,38.6452647 L24.0120815,38.6452647 L24.4777241,39.7676176 L25.6476623,39.7676176 L23.4665888,34.7276176 L22.4348182,34.7276176 L20.2546419,39.7676176 Z M15.1155268,38.8014412 L15.1155268,37.7020294 L16.4092775,37.7020294 C16.9834803,37.7020294 17.2373856,37.9093824 17.2373856,38.2437941 L17.2373856,38.2596765 C17.2373856,38.6311471 16.939518,38.8014412 16.4451652,38.8014412 L15.1155268,38.8014412 Z M15.1155268,36.7870294 L15.1155268,35.7290882 L16.21997,35.7290882 C16.6927902,35.7290882 16.953873,35.9143824 16.953873,36.2435 L16.953873,36.2567353 C16.953873,36.6282059 16.6416502,36.7870294 16.1472975,36.7870294 L15.1155268,36.7870294 Z M14.0254387,39.7676176 L16.4451652,39.7676176 C17.5935708,39.7676176 18.3499036,39.3096765 18.3499036,38.3937941 L18.3499036,38.3805588 C18.3499036,37.7090882 17.9865409,37.3729118 17.397983,37.1514412 C17.7613457,36.9511471 18.0663909,36.6370294 18.0663909,36.0714412 L18.0663909,36.0573235 C18.0663909,35.7132059 17.949756,35.4352647 17.7173833,35.2067353 C17.4266931,34.9208529 16.9691252,34.7637941 16.3877449,34.7637941 L14.0254387,34.7637941 L14.0254387,39.7676176 Z M8.47182096,37.1937941 L8.47182096,35.7573235 L9.5834417,35.7573235 C10.1289344,35.7573235 10.463587,35.9990882 10.463587,36.4720294 L10.463587,36.4852647 C10.463587,36.9079118 10.150467,37.1937941 9.60587153,37.1937941 L8.47182096,37.1937941 Z M7.35212549,39.7676176 L8.47182096,39.7676176 L8.47182096,38.1661471 L9.35106902,38.1661471 L10.4411571,39.7676176 L11.7501601,39.7676176 L10.5066521,37.9808529 C11.1535275,37.7443824 11.5976375,37.2370294 11.5976375,36.4296765 L11.5976375,36.4146765 C11.5976375,35.9435 11.4442177,35.5499706 11.160705,35.2702647 C10.8269496,34.9411471 10.3254194,34.7637941 9.67854404,34.7637941 L7.35212549,34.7637941 L7.35212549,39.7676176 Z M2.56201807,39.8461471 C3.9284413,39.8461471 4.79333427,39.1032059 4.79333427,37.5864412 L4.79333427,34.7637941 L3.674536,34.7637941 L3.674536,37.6305588 C3.674536,38.4237941 3.26003335,38.8305588 2.57637314,38.8305588 C1.89361012,38.8305588 1.47910747,38.4096765 1.47910747,37.5943824 L1.47910747,34.7637941 L0.359412008,34.7637941 L0.359412008,37.6226176 C0.359412008,39.0943824 1.19559484,39.8461471 2.56201807,39.8461471 Z" id="Fill-6"/>
                        </g>
                    </g>
                </g>
            </g>
        </g>
    </g>
</svg>